<?xml version="1.0" encoding="utf-8"?>
<svg viewBox="3.551 90.639 493.161 335.6" xmlns="http://www.w3.org/2000/svg">
  <path class="st11" d="M 436.8 141.89 L 436.8 114.516 L 405.016 126.078 L 405.016 299.218 L 438.032 287.22 L 438.032 207.92 C 438.032 188.771 441.329 172.998 447.964 160.682 C 454.599 148.366 465.246 139.506 479.906 134.143 C 484.992 132.275 490.594 131.084 496.712 130.448 L 496.712 90.639 C 491.825 91.036 486.819 92.149 481.734 94.016 C 461.551 101.366 446.573 117.337 436.8 141.89 M 345.979 234.142 C 345.979 250.987 341.886 265.885 333.742 278.758 C 325.597 291.67 314.672 300.569 301.005 305.575 C 287.139 310.621 275.936 309.627 267.394 302.595 C 258.812 295.563 254.561 283.843 254.561 267.435 C 254.561 251.027 258.852 236.207 267.394 222.938 C 275.936 209.668 287.179 200.53 301.005 195.485 C 314.672 190.519 325.558 191.512 333.742 198.465 C 341.886 205.417 345.979 217.296 345.979 234.142 M 220.632 279.433 C 220.632 297.43 223.652 312.091 229.651 323.413 C 235.65 334.736 244.232 342.047 255.316 345.424 C 266.44 348.761 279.313 347.768 294.013 342.444 C 305.018 338.431 315.069 332.432 324.127 324.367 C 333.186 316.342 340.297 307.124 345.383 296.715 L 345.383 309.548 C 345.383 343.477 330.206 365.964 299.813 377.048 C 279.035 384.597 262.825 381.061 251.184 366.361 L 231.002 401.402 C 238.55 410.659 247.926 416.062 259.13 417.652 C 270.334 419.241 283.802 417.175 299.495 411.454 C 324.962 402.197 344.389 387.934 357.738 368.784 C 371.088 349.595 377.762 326.274 377.762 298.821 L 377.762 136.01 L 344.429 148.127 L 344.429 172.045 C 339.542 165.052 332.55 160.722 323.492 159.053 C 314.433 157.384 304.382 158.576 293.377 162.549 C 279.114 167.754 266.48 176.137 255.475 187.777 C 244.47 199.418 235.888 213.204 229.77 229.175 C 223.692 245.147 220.632 261.912 220.632 279.433 M 205.932 198.544 L 172.917 210.542 L 172.917 383.683 L 205.932 371.685 L 205.932 198.544 Z M 118.488 299.973 L 37.48 329.452 C 39.506 315.785 44.115 304.145 51.226 294.49 C 58.378 284.836 67.833 277.884 79.673 273.593 C 91.273 269.382 100.411 269.66 107.046 274.546 C 113.681 279.433 117.495 287.895 118.488 299.973 M 3.551 359.488 C 3.551 377.247 6.809 391.788 13.324 403.031 C 19.84 414.275 29.097 421.466 41.135 424.604 C 53.173 427.743 67.237 426.352 83.328 420.512 C 96.597 415.705 108.317 408.871 118.488 400.091 C 128.699 391.311 137.36 381.577 144.471 370.89 L 128.857 346.457 C 116.025 366.123 100.729 379.194 83.01 385.63 C 71.409 389.841 61.198 389.762 52.418 385.352 C 43.638 380.942 38.553 371.923 37.122 358.375 L 37.122 358.018 L 154.523 315.269 L 154.523 304.542 C 154.523 286.783 151.622 272.004 145.822 260.283 C 140.021 248.563 131.519 240.856 120.316 237.201 C 109.112 233.546 95.763 234.539 80.268 240.18 C 64.973 245.743 51.544 254.682 39.903 266.998 C 28.302 279.314 19.324 293.537 13.007 309.667 C 6.69 325.797 3.551 342.404 3.551 359.488" style="fill: rgb(255, 255, 255);"/>
</svg>