<svg xmlns="http://www.w3.org/2000/svg" version="1.1" width="113" height="92">
<path d="M 2.019531 13.319336 L 2.019531 5.488281 L 6.729980 5.488281 L 6.729980 6.412109 L 2.878906 6.412109 L 2.878906 13.319336 Z M 3.738281 13.319336 L 3.738281 7.335938 L 6.729980 7.335938 L 6.729980 8.259766 L 4.597656 8.259766 L 4.597656 13.319336 Z " fill="rgb(0, 0, 0)" fill-opacity="1.000000" />
<path d="M 2.019531 26.319336 L 2.019531 12.300781 L 2.878906 12.300781 L 2.878906 26.319336 Z M 3.738281 26.319336 L 3.738281 12.300781 L 4.597656 12.300781 L 4.597656 26.319336 Z " fill="rgb(0, 0, 0)" fill-opacity="1.000000" />
<path d="M 3.738281 32.412109 L 3.738281 25.300781 L 4.597656 25.300781 L 4.597656 31.488281 L 6.729980 31.488281 L 6.729980 32.412109 Z M 2.019531 39.319336 L 2.019531 25.300781 L 2.878906 25.300781 L 2.878906 39.319336 Z M 3.738281 39.319336 L 3.738281 33.335938 L 6.729980 33.335938 L 6.729980 34.259766 L 4.597656 34.259766 L 4.597656 39.319336 Z " fill="rgb(0, 0, 0)" fill-opacity="1.000000" />
<path d="M 2.019531 52.319336 L 2.019531 38.300781 L 2.878906 38.300781 L 2.878906 52.319336 Z M 3.738281 52.319336 L 3.738281 38.300781 L 4.597656 38.300781 L 4.597656 52.319336 Z " fill="rgb(0, 0, 0)" fill-opacity="1.000000" />
<path d="M 3.738281 58.412109 L 3.738281 51.300781 L 4.597656 51.300781 L 4.597656 57.488281 L 6.729980 57.488281 L 6.729980 58.412109 Z M 2.019531 65.319336 L 2.019531 51.300781 L 2.878906 51.300781 L 2.878906 65.319336 Z M 3.738281 65.319336 L 3.738281 59.335938 L 6.729980 59.335938 L 6.729980 60.259766 L 4.597656 60.259766 L 4.597656 65.319336 Z " fill="rgb(0, 0, 0)" fill-opacity="1.000000" />
<path d="M 2.019531 78.319336 L 2.019531 64.300781 L 2.878906 64.300781 L 2.878906 78.319336 Z M 3.738281 78.319336 L 3.738281 64.300781 L 4.597656 64.300781 L 4.597656 78.319336 Z " fill="rgb(0, 0, 0)" fill-opacity="1.000000" />
<path d="M 3.738281 84.412109 L 3.738281 77.300781 L 4.597656 77.300781 L 4.597656 83.488281 L 6.729980 83.488281 L 6.729980 84.412109 Z M 2.019531 86.259766 L 2.019531 77.300781 L 2.878906 77.300781 L 2.878906 85.335938 L 6.729980 85.335938 L 6.729980 86.259766 Z " fill="rgb(0, 0, 0)" fill-opacity="1.000000" />
<path d="M 6.892578 84.412109 L 6.892578 83.488281 L 13.729980 83.488281 L 13.729980 84.412109 Z M 6.892578 86.259766 L 6.892578 85.335938 L 13.729980 85.335938 L 13.729980 86.259766 Z " fill="rgb(0, 0, 0)" fill-opacity="1.000000" />
<path d="M 13.892578 84.412109 L 13.892578 83.488281 L 20.729980 83.488281 L 20.729980 84.412109 Z M 13.892578 86.259766 L 13.892578 85.335938 L 20.729980 85.335938 L 20.729980 86.259766 Z " fill="rgb(0, 0, 0)" fill-opacity="1.000000" />
<path d="M 20.892578 84.412109 L 20.892578 83.488281 L 27.729980 83.488281 L 27.729980 84.412109 Z M 20.892578 86.259766 L 20.892578 85.335938 L 27.729980 85.335938 L 27.729980 86.259766 Z " fill="rgb(0, 0, 0)" fill-opacity="1.000000" />
<path d="M 27.892578 84.412109 L 27.892578 83.488281 L 34.729980 83.488281 L 34.729980 84.412109 Z M 27.892578 86.259766 L 27.892578 85.335938 L 34.729980 85.335938 L 34.729980 86.259766 Z " fill="rgb(0, 0, 0)" fill-opacity="1.000000" />
<path d="M 34.892578 86.259766 L 34.892578 85.335938 L 41.729980 85.335938 L 41.729980 86.259766 Z M 34.892578 84.412109 L 34.892578 83.488281 L 37.019531 83.488281 L 37.019531 77.300781 L 37.878906 77.300781 L 37.878906 84.412109 Z M 38.738281 84.412109 L 38.738281 77.300781 L 39.597656 77.300781 L 39.597656 83.488281 L 41.729980 83.488281 L 41.729980 84.412109 Z " fill="rgb(0, 0, 0)" fill-opacity="1.000000" />
<path d="M 41.892578 84.412109 L 41.892578 83.488281 L 48.729980 83.488281 L 48.729980 84.412109 Z M 41.892578 86.259766 L 41.892578 85.335938 L 48.729980 85.335938 L 48.729980 86.259766 Z " fill="rgb(0, 0, 0)" fill-opacity="1.000000" />
<path d="M 48.892578 84.412109 L 48.892578 83.488281 L 55.729980 83.488281 L 55.729980 84.412109 Z M 48.892578 86.259766 L 48.892578 85.335938 L 55.729980 85.335938 L 55.729980 86.259766 Z " fill="rgb(0, 0, 0)" fill-opacity="1.000000" />
<path d="M 55.892578 84.412109 L 55.892578 83.488281 L 62.729980 83.488281 L 62.729980 84.412109 Z M 55.892578 86.259766 L 55.892578 85.335938 L 62.729980 85.335938 L 62.729980 86.259766 Z " fill="rgb(0, 0, 0)" fill-opacity="1.000000" />
<path d="M 62.892578 84.412109 L 62.892578 83.488281 L 69.729980 83.488281 L 69.729980 84.412109 Z M 62.892578 86.259766 L 62.892578 85.335938 L 69.729980 85.335938 L 69.729980 86.259766 Z " fill="rgb(0, 0, 0)" fill-opacity="1.000000" />
<path d="M 69.892578 86.259766 L 69.892578 85.335938 L 76.729980 85.335938 L 76.729980 86.259766 Z M 69.892578 84.412109 L 69.892578 83.488281 L 72.019531 83.488281 L 72.019531 77.300781 L 72.878906 77.300781 L 72.878906 84.412109 Z M 73.738281 84.412109 L 73.738281 77.300781 L 74.597656 77.300781 L 74.597656 83.488281 L 76.729980 83.488281 L 76.729980 84.412109 Z " fill="rgb(0, 0, 0)" fill-opacity="1.000000" />
<path d="M 76.892578 84.412109 L 76.892578 83.488281 L 83.729980 83.488281 L 83.729980 84.412109 Z M 76.892578 86.259766 L 76.892578 85.335938 L 83.729980 85.335938 L 83.729980 86.259766 Z " fill="rgb(0, 0, 0)" fill-opacity="1.000000" />
<path d="M 83.892578 84.412109 L 83.892578 83.488281 L 90.729980 83.488281 L 90.729980 84.412109 Z M 83.892578 86.259766 L 83.892578 85.335938 L 90.729980 85.335938 L 90.729980 86.259766 Z " fill="rgb(0, 0, 0)" fill-opacity="1.000000" />
<path d="M 90.892578 84.412109 L 90.892578 83.488281 L 97.729980 83.488281 L 97.729980 84.412109 Z M 90.892578 86.259766 L 90.892578 85.335938 L 97.729980 85.335938 L 97.729980 86.259766 Z " fill="rgb(0, 0, 0)" fill-opacity="1.000000" />
<path d="M 97.892578 84.412109 L 97.892578 83.488281 L 104.729980 83.488281 L 104.729980 84.412109 Z M 97.892578 86.259766 L 97.892578 85.335938 L 104.729980 85.335938 L 104.729980 86.259766 Z " fill="rgb(0, 0, 0)" fill-opacity="1.000000" />
<path d="M 104.892578 84.412109 L 104.892578 83.488281 L 107.019531 83.488281 L 107.019531 77.300781 L 107.878906 77.300781 L 107.878906 84.412109 Z M 104.892578 86.259766 L 104.892578 85.335938 L 108.738281 85.335938 L 108.738281 77.300781 L 109.597656 77.300781 L 109.597656 86.259766 Z " fill="rgb(0, 0, 0)" fill-opacity="1.000000" />
<path d="M 9.341797 74.108398 Q 10.711426 74.108398 11.253906 73.434326 Q 11.796387 72.760254 11.796387 70.998535 Q 11.796387 69.220703 11.256592 68.546631 Q 10.716797 67.872559 9.341797 67.872559 L 8.826172 67.872559 L 8.826172 74.108398 Z M 9.363281 66.980957 Q 11.200195 66.980957 12.070312 67.958496 Q 12.940430 68.936035 12.940430 70.998535 Q 12.940430 73.050293 12.070312 74.025146 Q 11.200195 75.000000 9.363281 75.000000 L 7.735840 75.000000 L 7.735840 66.980957 Z " fill="rgb(0, 0, 0)" fill-opacity="1.000000" />
<path d="M 17.770508 71.976074 L 17.442871 71.976074 Q 16.578125 71.976074 16.140381 72.279541 Q 15.702637 72.583008 15.702637 73.184570 Q 15.702637 73.727051 16.030273 74.027832 Q 16.357910 74.328613 16.937988 74.328613 Q 17.754395 74.328613 18.221680 73.761963 Q 18.688965 73.195312 18.694336 72.196289 L 18.694336 71.976074 Z M 19.687988 71.567871 L 19.687988 75.000000 L 18.694336 75.000000 L 18.694336 74.108398 Q 18.377441 74.645508 17.896729 74.900635 Q 17.416016 75.155762 16.728516 75.155762 Q 15.810059 75.155762 15.262207 74.637451 Q 14.714355 74.119141 14.714355 73.249023 Q 14.714355 72.244629 15.388428 71.723633 Q 16.062500 71.202637 17.367676 71.202637 L 18.694336 71.202637 L 18.694336 71.046875 Q 18.688965 70.327148 18.329102 70.002197 Q 17.969238 69.677246 17.179688 69.677246 Q 16.674805 69.677246 16.159180 69.822266 Q 15.643555 69.967285 15.154785 70.246582 L 15.154785 69.258301 Q 15.702637 69.048828 16.204834 68.944092 Q 16.707031 68.839355 17.179688 68.839355 Q 17.926270 68.839355 18.455322 69.059570 Q 18.984375 69.279785 19.312012 69.720215 Q 19.516113 69.988770 19.602051 70.383545 Q 19.687988 70.778320 19.687988 71.567871 Z " fill="rgb(0, 0, 0)" fill-opacity="1.000000" />
<path d="M 27.203613 70.225098 Q 26.886719 69.978027 26.559082 69.865234 Q 26.231445 69.752441 25.839355 69.752441 Q 24.915527 69.752441 24.426758 70.332520 Q 23.937988 70.912598 23.937988 72.008301 L 23.937988 75.000000 L 22.944336 75.000000 L 22.944336 68.984375 L 23.937988 68.984375 L 23.937988 70.160645 Q 24.185059 69.521484 24.697998 69.180420 Q 25.210938 68.839355 25.914551 68.839355 Q 26.279785 68.839355 26.596680 68.930664 Q 26.913574 69.021973 27.203613 69.215332 Z " fill="rgb(0, 0, 0)" fill-opacity="1.000000" />
<path d="M 31.297852 67.276367 L 31.297852 68.984375 L 33.542969 68.984375 L 33.542969 69.752441 L 31.297852 69.752441 L 31.297852 73.018066 Q 31.297852 73.684082 31.550293 73.947266 Q 31.802734 74.210449 32.431152 74.210449 L 33.542969 74.210449 L 33.542969 75.000000 L 32.334473 75.000000 Q 31.222656 75.000000 30.766113 74.554199 Q 30.309570 74.108398 30.309570 73.018066 L 30.309570 69.752441 L 28.703613 69.752441 L 28.703613 68.984375 L 30.309570 68.984375 L 30.309570 67.276367 Z " fill="rgb(0, 0, 0)" fill-opacity="1.000000" />
<path d="M 37.019531 78.319336 L 37.019531 64.300781 L 37.878906 64.300781 L 37.878906 78.319336 Z M 38.738281 78.319336 L 38.738281 64.300781 L 39.597656 64.300781 L 39.597656 78.319336 Z " fill="rgb(0, 0, 0)" fill-opacity="1.000000" />
<path d="M 48.332520 70.321777 L 45.947754 71.610840 L 48.332520 72.905273 L 47.956543 73.560547 L 45.711426 72.212402 L 45.711426 74.715332 L 44.943359 74.715332 L 44.943359 72.212402 L 42.698242 73.560547 L 42.322266 72.905273 L 44.712402 71.610840 L 42.322266 70.321777 L 42.698242 69.661133 L 44.943359 71.009277 L 44.943359 68.506348 L 45.711426 68.506348 L 45.711426 71.009277 L 47.956543 69.661133 Z " fill="rgb(0, 0, 0)" fill-opacity="1.000000" />
<path d="M 51.089355 72.830078 L 52.979980 72.830078 L 52.979980 75.000000 L 51.089355 75.000000 Z " fill="rgb(0, 0, 0)" fill-opacity="1.000000" />
<path d="M 58.014160 74.242676 L 58.014160 77.288086 L 57.020508 77.288086 L 57.020508 68.984375 L 58.014160 68.984375 L 58.014160 69.752441 Q 58.261230 69.306641 58.672119 69.072998 Q 59.083008 68.839355 59.620117 68.839355 Q 60.710449 68.839355 61.330811 69.682617 Q 61.951172 70.525879 61.951172 72.019043 Q 61.951172 73.485352 61.328125 74.320557 Q 60.705078 75.155762 59.620117 75.155762 Q 59.072266 75.155762 58.661377 74.922119 Q 58.250488 74.688477 58.014160 74.242676 Z M 60.914551 71.997559 Q 60.914551 70.848145 60.552002 70.262695 Q 60.189453 69.677246 59.475098 69.677246 Q 58.755371 69.677246 58.384766 70.265381 Q 58.014160 70.853516 58.014160 71.997559 Q 58.014160 73.136230 58.384766 73.727051 Q 58.755371 74.317871 59.475098 74.317871 Q 60.189453 74.317871 60.552002 73.732422 Q 60.914551 73.146973 60.914551 71.997559 Z " fill="rgb(0, 0, 0)" fill-opacity="1.000000" />
<path d="M 67.608398 73.066406 Q 67.361328 73.694824 66.979980 74.720703 Q 66.448242 76.138672 66.265625 76.450195 Q 66.018555 76.869141 65.647949 77.078613 Q 65.277344 77.288086 64.783203 77.288086 L 63.988281 77.288086 L 63.988281 76.460938 L 64.573730 76.460938 Q 65.008789 76.460938 65.255859 76.208496 Q 65.502930 75.956055 65.884277 74.903320 L 63.558594 68.984375 L 64.605957 68.984375 L 66.389160 73.689453 L 68.145508 68.984375 L 69.192871 68.984375 Z " fill="rgb(0, 0, 0)" fill-opacity="1.000000" />
<path d="M 72.019531 78.319336 L 72.019531 64.300781 L 72.878906 64.300781 L 72.878906 78.319336 Z M 73.738281 78.319336 L 73.738281 64.300781 L 74.597656 64.300781 L 74.597656 78.319336 Z " fill="rgb(0, 0, 0)" fill-opacity="1.000000" />
<path d="M 79.089355 72.830078 L 80.979980 72.830078 L 80.979980 75.000000 L 79.089355 75.000000 Z " fill="rgb(0, 0, 0)" fill-opacity="1.000000" />
<path d="M 86.014160 74.242676 L 86.014160 77.288086 L 85.020508 77.288086 L 85.020508 68.984375 L 86.014160 68.984375 L 86.014160 69.752441 Q 86.261230 69.306641 86.672119 69.072998 Q 87.083008 68.839355 87.620117 68.839355 Q 88.710449 68.839355 89.330811 69.682617 Q 89.951172 70.525879 89.951172 72.019043 Q 89.951172 73.485352 89.328125 74.320557 Q 88.705078 75.155762 87.620117 75.155762 Q 87.072266 75.155762 86.661377 74.922119 Q 86.250488 74.688477 86.014160 74.242676 Z M 88.914551 71.997559 Q 88.914551 70.848145 88.552002 70.262695 Q 88.189453 69.677246 87.475098 69.677246 Q 86.755371 69.677246 86.384766 70.265381 Q 86.014160 70.853516 86.014160 71.997559 Q 86.014160 73.136230 86.384766 73.727051 Q 86.755371 74.317871 87.475098 74.317871 Q 88.189453 74.317871 88.552002 73.732422 Q 88.914551 73.146973 88.914551 71.997559 Z " fill="rgb(0, 0, 0)" fill-opacity="1.000000" />
<path d="M 96.645020 71.272461 L 96.645020 75.000000 L 95.651367 75.000000 L 95.651367 71.272461 Q 95.651367 70.461426 95.366699 70.080078 Q 95.082031 69.698730 94.475098 69.698730 Q 93.782227 69.698730 93.408936 70.190186 Q 93.035645 70.681641 93.035645 71.600098 L 93.035645 75.000000 L 92.047363 75.000000 L 92.047363 66.642578 L 93.035645 66.642578 L 93.035645 69.886719 Q 93.298828 69.371094 93.750000 69.105225 Q 94.201172 68.839355 94.818848 68.839355 Q 95.737305 68.839355 96.191162 69.443604 Q 96.645020 70.047852 96.645020 71.272461 Z " fill="rgb(0, 0, 0)" fill-opacity="1.000000" />
<path d="M 100.014160 74.242676 L 100.014160 77.288086 L 99.020508 77.288086 L 99.020508 68.984375 L 100.014160 68.984375 L 100.014160 69.752441 Q 100.261230 69.306641 100.672119 69.072998 Q 101.083008 68.839355 101.620117 68.839355 Q 102.710449 68.839355 103.330811 69.682617 Q 103.951172 70.525879 103.951172 72.019043 Q 103.951172 73.485352 103.328125 74.320557 Q 102.705078 75.155762 101.620117 75.155762 Q 101.072266 75.155762 100.661377 74.922119 Q 100.250488 74.688477 100.014160 74.242676 Z M 102.914551 71.997559 Q 102.914551 70.848145 102.552002 70.262695 Q 102.189453 69.677246 101.475098 69.677246 Q 100.755371 69.677246 100.384766 70.265381 Q 100.014160 70.853516 100.014160 71.997559 Q 100.014160 73.136230 100.384766 73.727051 Q 100.755371 74.317871 101.475098 74.317871 Q 102.189453 74.317871 102.552002 73.732422 Q 102.914551 73.146973 102.914551 71.997559 Z " fill="rgb(0, 0, 0)" fill-opacity="1.000000" />
<path d="M 107.019531 78.319336 L 107.019531 64.300781 L 107.878906 64.300781 L 107.878906 78.319336 Z M 108.738281 78.319336 L 108.738281 64.300781 L 109.597656 64.300781 L 109.597656 78.319336 Z " fill="rgb(0, 0, 0)" fill-opacity="1.000000" />
<path d="M 6.892578 58.412109 L 6.892578 57.488281 L 13.729980 57.488281 L 13.729980 58.412109 Z M 6.892578 60.259766 L 6.892578 59.335938 L 13.729980 59.335938 L 13.729980 60.259766 Z " fill="rgb(0, 0, 0)" fill-opacity="1.000000" />
<path d="M 13.892578 58.412109 L 13.892578 57.488281 L 20.729980 57.488281 L 20.729980 58.412109 Z M 13.892578 60.259766 L 13.892578 59.335938 L 20.729980 59.335938 L 20.729980 60.259766 Z " fill="rgb(0, 0, 0)" fill-opacity="1.000000" />
<path d="M 20.892578 58.412109 L 20.892578 57.488281 L 27.729980 57.488281 L 27.729980 58.412109 Z M 20.892578 60.259766 L 20.892578 59.335938 L 27.729980 59.335938 L 27.729980 60.259766 Z " fill="rgb(0, 0, 0)" fill-opacity="1.000000" />
<path d="M 27.892578 58.412109 L 27.892578 57.488281 L 34.729980 57.488281 L 34.729980 58.412109 Z M 27.892578 60.259766 L 27.892578 59.335938 L 34.729980 59.335938 L 34.729980 60.259766 Z " fill="rgb(0, 0, 0)" fill-opacity="1.000000" />
<path d="M 38.738281 65.319336 L 38.738281 59.335938 L 41.729980 59.335938 L 41.729980 60.259766 L 39.597656 60.259766 L 39.597656 65.319336 Z M 37.019531 65.319336 L 37.019531 60.259766 L 34.892578 60.259766 L 34.892578 59.335938 L 37.878906 59.335938 L 37.878906 65.319336 Z M 34.892578 58.412109 L 34.892578 57.488281 L 37.019531 57.488281 L 37.019531 51.300781 L 37.878906 51.300781 L 37.878906 58.412109 Z M 38.738281 58.412109 L 38.738281 51.300781 L 39.597656 51.300781 L 39.597656 57.488281 L 41.729980 57.488281 L 41.729980 58.412109 Z " fill="rgb(0, 0, 0)" fill-opacity="1.000000" />
<path d="M 41.892578 58.412109 L 41.892578 57.488281 L 48.729980 57.488281 L 48.729980 58.412109 Z M 41.892578 60.259766 L 41.892578 59.335938 L 48.729980 59.335938 L 48.729980 60.259766 Z " fill="rgb(0, 0, 0)" fill-opacity="1.000000" />
<path d="M 48.892578 58.412109 L 48.892578 57.488281 L 55.729980 57.488281 L 55.729980 58.412109 Z M 48.892578 60.259766 L 48.892578 59.335938 L 55.729980 59.335938 L 55.729980 60.259766 Z " fill="rgb(0, 0, 0)" fill-opacity="1.000000" />
<path d="M 55.892578 58.412109 L 55.892578 57.488281 L 62.729980 57.488281 L 62.729980 58.412109 Z M 55.892578 60.259766 L 55.892578 59.335938 L 62.729980 59.335938 L 62.729980 60.259766 Z " fill="rgb(0, 0, 0)" fill-opacity="1.000000" />
<path d="M 62.892578 58.412109 L 62.892578 57.488281 L 69.729980 57.488281 L 69.729980 58.412109 Z M 62.892578 60.259766 L 62.892578 59.335938 L 69.729980 59.335938 L 69.729980 60.259766 Z " fill="rgb(0, 0, 0)" fill-opacity="1.000000" />
<path d="M 73.738281 65.319336 L 73.738281 59.335938 L 76.729980 59.335938 L 76.729980 60.259766 L 74.597656 60.259766 L 74.597656 65.319336 Z M 72.019531 65.319336 L 72.019531 60.259766 L 69.892578 60.259766 L 69.892578 59.335938 L 72.878906 59.335938 L 72.878906 65.319336 Z M 69.892578 58.412109 L 69.892578 57.488281 L 72.019531 57.488281 L 72.019531 51.300781 L 72.878906 51.300781 L 72.878906 58.412109 Z M 73.738281 58.412109 L 73.738281 51.300781 L 74.597656 51.300781 L 74.597656 57.488281 L 76.729980 57.488281 L 76.729980 58.412109 Z " fill="rgb(0, 0, 0)" fill-opacity="1.000000" />
<path d="M 76.892578 58.412109 L 76.892578 57.488281 L 83.729980 57.488281 L 83.729980 58.412109 Z M 76.892578 60.259766 L 76.892578 59.335938 L 83.729980 59.335938 L 83.729980 60.259766 Z " fill="rgb(0, 0, 0)" fill-opacity="1.000000" />
<path d="M 83.892578 58.412109 L 83.892578 57.488281 L 90.729980 57.488281 L 90.729980 58.412109 Z M 83.892578 60.259766 L 83.892578 59.335938 L 90.729980 59.335938 L 90.729980 60.259766 Z " fill="rgb(0, 0, 0)" fill-opacity="1.000000" />
<path d="M 90.892578 58.412109 L 90.892578 57.488281 L 97.729980 57.488281 L 97.729980 58.412109 Z M 90.892578 60.259766 L 90.892578 59.335938 L 97.729980 59.335938 L 97.729980 60.259766 Z " fill="rgb(0, 0, 0)" fill-opacity="1.000000" />
<path d="M 97.892578 58.412109 L 97.892578 57.488281 L 104.729980 57.488281 L 104.729980 58.412109 Z M 97.892578 60.259766 L 97.892578 59.335938 L 104.729980 59.335938 L 104.729980 60.259766 Z " fill="rgb(0, 0, 0)" fill-opacity="1.000000" />
<path d="M 104.892578 58.412109 L 104.892578 57.488281 L 107.019531 57.488281 L 107.019531 51.300781 L 107.878906 51.300781 L 107.878906 58.412109 Z M 107.019531 65.319336 L 107.019531 60.259766 L 104.892578 60.259766 L 104.892578 59.335938 L 107.878906 59.335938 L 107.878906 65.319336 Z M 108.738281 65.319336 L 108.738281 51.300781 L 109.597656 51.300781 L 109.597656 65.319336 Z " fill="rgb(0, 0, 0)" fill-opacity="1.000000" />
<path d="M 13.332520 44.321777 L 10.947754 45.610840 L 13.332520 46.905273 L 12.956543 47.560547 L 10.711426 46.212402 L 10.711426 48.715332 L 9.943359 48.715332 L 9.943359 46.212402 L 7.698242 47.560547 L 7.322266 46.905273 L 9.712402 45.610840 L 7.322266 44.321777 L 7.698242 43.661133 L 9.943359 45.009277 L 9.943359 42.506348 L 10.711426 42.506348 L 10.711426 45.009277 L 12.956543 43.661133 Z " fill="rgb(0, 0, 0)" fill-opacity="1.000000" />
<path d="M 16.089355 46.830078 L 17.979980 46.830078 L 17.979980 49.000000 L 16.089355 49.000000 Z " fill="rgb(0, 0, 0)" fill-opacity="1.000000" />
<path d="M 22.267578 40.642578 L 23.288086 40.642578 L 23.288086 45.481934 L 25.882324 42.984375 L 27.085449 42.984375 L 24.716797 45.250977 L 27.456055 49.000000 L 26.247559 49.000000 L 24.023926 45.895508 L 23.288086 46.588379 L 23.288086 49.000000 L 22.267578 49.000000 Z " fill="rgb(0, 0, 0)" fill-opacity="1.000000" />
<path d="M 31.297852 41.276367 L 31.297852 42.984375 L 33.542969 42.984375 L 33.542969 43.752441 L 31.297852 43.752441 L 31.297852 47.018066 Q 31.297852 47.684082 31.550293 47.947266 Q 31.802734 48.210449 32.431152 48.210449 L 33.542969 48.210449 L 33.542969 49.000000 L 32.334473 49.000000 Q 31.222656 49.000000 30.766113 48.554199 Q 30.309570 48.108398 30.309570 47.018066 L 30.309570 43.752441 L 28.703613 43.752441 L 28.703613 42.984375 L 30.309570 42.984375 L 30.309570 41.276367 Z " fill="rgb(0, 0, 0)" fill-opacity="1.000000" />
<path d="M 37.019531 52.319336 L 37.019531 38.300781 L 37.878906 38.300781 L 37.878906 52.319336 Z M 38.738281 52.319336 L 38.738281 38.300781 L 39.597656 38.300781 L 39.597656 52.319336 Z " fill="rgb(0, 0, 0)" fill-opacity="1.000000" />
<path d="M 46.082031 45.213379 Q 46.500977 45.320801 46.796387 45.618896 Q 47.091797 45.916992 47.532227 46.808594 L 48.622559 49.000000 L 47.457031 49.000000 L 46.500977 46.975098 Q 46.087402 46.110352 45.757080 45.860596 Q 45.426758 45.610840 44.895020 45.610840 L 43.858398 45.610840 L 43.858398 49.000000 L 42.768066 49.000000 L 42.768066 40.980957 L 45.002441 40.980957 Q 46.323730 40.980957 47.027344 41.577148 Q 47.730957 42.173340 47.730957 43.301270 Q 47.730957 44.096191 47.298584 44.598389 Q 46.866211 45.100586 46.082031 45.213379 Z M 43.858398 41.872559 L 43.858398 44.719238 L 45.045410 44.719238 Q 45.824219 44.719238 46.205566 44.370117 Q 46.586914 44.020996 46.586914 43.301270 Q 46.586914 42.608398 46.181396 42.240479 Q 45.775879 41.872559 45.002441 41.872559 Z " fill="rgb(0, 0, 0)" fill-opacity="1.000000" />
<path d="M 50.047363 46.722656 L 50.047363 42.995117 L 51.035645 42.995117 L 51.035645 46.722656 Q 51.035645 47.533691 51.322998 47.915039 Q 51.610352 48.296387 52.211914 48.296387 Q 52.910156 48.296387 53.280762 47.804932 Q 53.651367 47.313477 53.651367 46.395020 L 53.651367 42.995117 L 54.645020 42.995117 L 54.645020 49.000000 L 53.651367 49.000000 L 53.651367 48.097656 Q 53.388184 48.618652 52.934326 48.887207 Q 52.480469 49.155762 51.873535 49.155762 Q 50.949707 49.155762 50.498535 48.551514 Q 50.047363 47.947266 50.047363 46.722656 Z " fill="rgb(0, 0, 0)" fill-opacity="1.000000" />
<path d="M 61.226074 43.193848 L 61.226074 44.160645 Q 60.801758 43.913574 60.372070 43.790039 Q 59.942383 43.666504 59.496582 43.666504 Q 58.825195 43.666504 58.494873 43.884033 Q 58.164551 44.101562 58.164551 44.547363 Q 58.164551 44.950195 58.411621 45.148926 Q 58.658691 45.347656 59.641602 45.535645 L 60.039062 45.610840 Q 60.774902 45.750488 61.153564 46.169434 Q 61.532227 46.588379 61.532227 47.259766 Q 61.532227 48.151367 60.898438 48.653564 Q 60.264648 49.155762 59.136719 49.155762 Q 58.690918 49.155762 58.202148 49.061768 Q 57.713379 48.967773 57.144043 48.779785 L 57.144043 47.759277 Q 57.697266 48.043945 58.202148 48.186279 Q 58.707031 48.328613 59.158203 48.328613 Q 59.813477 48.328613 60.173340 48.062744 Q 60.533203 47.796875 60.533203 47.318848 Q 60.533203 46.631348 59.217285 46.368164 L 59.174316 46.357422 L 58.803711 46.282227 Q 57.949707 46.115723 57.557617 45.720947 Q 57.165527 45.326172 57.165527 44.644043 Q 57.165527 43.779297 57.750977 43.309326 Q 58.336426 42.839355 59.421387 42.839355 Q 59.904785 42.839355 60.350586 42.927979 Q 60.796387 43.016602 61.226074 43.193848 Z " fill="rgb(0, 0, 0)" fill-opacity="1.000000" />
<path d="M 66.297852 41.276367 L 66.297852 42.984375 L 68.542969 42.984375 L 68.542969 43.752441 L 66.297852 43.752441 L 66.297852 47.018066 Q 66.297852 47.684082 66.550293 47.947266 Q 66.802734 48.210449 67.431152 48.210449 L 68.542969 48.210449 L 68.542969 49.000000 L 67.334473 49.000000 Q 66.222656 49.000000 65.766113 48.554199 Q 65.309570 48.108398 65.309570 47.018066 L 65.309570 43.752441 L 63.703613 43.752441 L 63.703613 42.984375 L 65.309570 42.984375 L 65.309570 41.276367 Z " fill="rgb(0, 0, 0)" fill-opacity="1.000000" />
<path d="M 72.019531 52.319336 L 72.019531 38.300781 L 72.878906 38.300781 L 72.878906 52.319336 Z M 73.738281 52.319336 L 73.738281 38.300781 L 74.597656 38.300781 L 74.597656 52.319336 Z " fill="rgb(0, 0, 0)" fill-opacity="1.000000" />
<path d="M 79.089355 46.830078 L 80.979980 46.830078 L 80.979980 49.000000 L 79.089355 49.000000 Z " fill="rgb(0, 0, 0)" fill-opacity="1.000000" />
<path d="M 89.698730 48.693848 Q 89.301270 48.924805 88.879639 49.040283 Q 88.458008 49.155762 88.017578 49.155762 Q 86.621094 49.155762 85.834229 48.317871 Q 85.047363 47.479980 85.047363 45.997559 Q 85.047363 44.515137 85.834229 43.677246 Q 86.621094 42.839355 88.017578 42.839355 Q 88.452637 42.839355 88.866211 42.952148 Q 89.279785 43.064941 89.698730 43.301270 L 89.698730 44.337891 Q 89.306641 43.988770 88.911865 43.833008 Q 88.517090 43.677246 88.017578 43.677246 Q 87.088379 43.677246 86.588867 44.278809 Q 86.089355 44.880371 86.089355 45.997559 Q 86.089355 47.109375 86.591553 47.713623 Q 87.093750 48.317871 88.017578 48.317871 Q 88.533203 48.317871 88.941406 48.159424 Q 89.349609 48.000977 89.698730 47.667969 Z " fill="rgb(0, 0, 0)" fill-opacity="1.000000" />
<path d="M 93.014160 48.242676 L 93.014160 51.288086 L 92.020508 51.288086 L 92.020508 42.984375 L 93.014160 42.984375 L 93.014160 43.752441 Q 93.261230 43.306641 93.672119 43.072998 Q 94.083008 42.839355 94.620117 42.839355 Q 95.710449 42.839355 96.330811 43.682617 Q 96.951172 44.525879 96.951172 46.019043 Q 96.951172 47.485352 96.328125 48.320557 Q 95.705078 49.155762 94.620117 49.155762 Q 94.072266 49.155762 93.661377 48.922119 Q 93.250488 48.688477 93.014160 48.242676 Z M 95.914551 45.997559 Q 95.914551 44.848145 95.552002 44.262695 Q 95.189453 43.677246 94.475098 43.677246 Q 93.755371 43.677246 93.384766 44.265381 Q 93.014160 44.853516 93.014160 45.997559 Q 93.014160 47.136230 93.384766 47.727051 Q 93.755371 48.317871 94.475098 48.317871 Q 95.189453 48.317871 95.552002 47.732422 Q 95.914551 47.146973 95.914551 45.997559 Z " fill="rgb(0, 0, 0)" fill-opacity="1.000000" />
<path d="M 100.014160 48.242676 L 100.014160 51.288086 L 99.020508 51.288086 L 99.020508 42.984375 L 100.014160 42.984375 L 100.014160 43.752441 Q 100.261230 43.306641 100.672119 43.072998 Q 101.083008 42.839355 101.620117 42.839355 Q 102.710449 42.839355 103.330811 43.682617 Q 103.951172 44.525879 103.951172 46.019043 Q 103.951172 47.485352 103.328125 48.320557 Q 102.705078 49.155762 101.620117 49.155762 Q 101.072266 49.155762 100.661377 48.922119 Q 100.250488 48.688477 100.014160 48.242676 Z M 102.914551 45.997559 Q 102.914551 44.848145 102.552002 44.262695 Q 102.189453 43.677246 101.475098 43.677246 Q 100.755371 43.677246 100.384766 44.265381 Q 100.014160 44.853516 100.014160 45.997559 Q 100.014160 47.136230 100.384766 47.727051 Q 100.755371 48.317871 101.475098 48.317871 Q 102.189453 48.317871 102.552002 47.732422 Q 102.914551 47.146973 102.914551 45.997559 Z " fill="rgb(0, 0, 0)" fill-opacity="1.000000" />
<path d="M 107.019531 52.319336 L 107.019531 38.300781 L 107.878906 38.300781 L 107.878906 52.319336 Z M 108.738281 52.319336 L 108.738281 38.300781 L 109.597656 38.300781 L 109.597656 52.319336 Z " fill="rgb(0, 0, 0)" fill-opacity="1.000000" />
<path d="M 6.892578 32.412109 L 6.892578 31.488281 L 13.729980 31.488281 L 13.729980 32.412109 Z M 6.892578 34.259766 L 6.892578 33.335938 L 13.729980 33.335938 L 13.729980 34.259766 Z " fill="rgb(0, 0, 0)" fill-opacity="1.000000" />
<path d="M 13.892578 32.412109 L 13.892578 31.488281 L 20.729980 31.488281 L 20.729980 32.412109 Z M 13.892578 34.259766 L 13.892578 33.335938 L 20.729980 33.335938 L 20.729980 34.259766 Z " fill="rgb(0, 0, 0)" fill-opacity="1.000000" />
<path d="M 20.892578 32.412109 L 20.892578 31.488281 L 27.729980 31.488281 L 27.729980 32.412109 Z M 20.892578 34.259766 L 20.892578 33.335938 L 27.729980 33.335938 L 27.729980 34.259766 Z " fill="rgb(0, 0, 0)" fill-opacity="1.000000" />
<path d="M 27.892578 32.412109 L 27.892578 31.488281 L 34.729980 31.488281 L 34.729980 32.412109 Z M 27.892578 34.259766 L 27.892578 33.335938 L 34.729980 33.335938 L 34.729980 34.259766 Z " fill="rgb(0, 0, 0)" fill-opacity="1.000000" />
<path d="M 38.738281 39.319336 L 38.738281 33.335938 L 41.729980 33.335938 L 41.729980 34.259766 L 39.597656 34.259766 L 39.597656 39.319336 Z M 37.019531 39.319336 L 37.019531 34.259766 L 34.892578 34.259766 L 34.892578 33.335938 L 37.878906 33.335938 L 37.878906 39.319336 Z M 34.892578 32.412109 L 34.892578 31.488281 L 37.019531 31.488281 L 37.019531 25.300781 L 37.878906 25.300781 L 37.878906 32.412109 Z M 38.738281 32.412109 L 38.738281 25.300781 L 39.597656 25.300781 L 39.597656 31.488281 L 41.729980 31.488281 L 41.729980 32.412109 Z " fill="rgb(0, 0, 0)" fill-opacity="1.000000" />
<path d="M 41.892578 32.412109 L 41.892578 31.488281 L 48.729980 31.488281 L 48.729980 32.412109 Z M 41.892578 34.259766 L 41.892578 33.335938 L 48.729980 33.335938 L 48.729980 34.259766 Z " fill="rgb(0, 0, 0)" fill-opacity="1.000000" />
<path d="M 48.892578 32.412109 L 48.892578 31.488281 L 55.729980 31.488281 L 55.729980 32.412109 Z M 48.892578 34.259766 L 48.892578 33.335938 L 55.729980 33.335938 L 55.729980 34.259766 Z " fill="rgb(0, 0, 0)" fill-opacity="1.000000" />
<path d="M 55.892578 32.412109 L 55.892578 31.488281 L 62.729980 31.488281 L 62.729980 32.412109 Z M 55.892578 34.259766 L 55.892578 33.335938 L 62.729980 33.335938 L 62.729980 34.259766 Z " fill="rgb(0, 0, 0)" fill-opacity="1.000000" />
<path d="M 62.892578 32.412109 L 62.892578 31.488281 L 69.729980 31.488281 L 69.729980 32.412109 Z M 62.892578 34.259766 L 62.892578 33.335938 L 69.729980 33.335938 L 69.729980 34.259766 Z " fill="rgb(0, 0, 0)" fill-opacity="1.000000" />
<path d="M 73.738281 39.319336 L 73.738281 33.335938 L 76.729980 33.335938 L 76.729980 34.259766 L 74.597656 34.259766 L 74.597656 39.319336 Z M 72.019531 39.319336 L 72.019531 34.259766 L 69.892578 34.259766 L 69.892578 33.335938 L 72.878906 33.335938 L 72.878906 39.319336 Z M 69.892578 32.412109 L 69.892578 31.488281 L 72.019531 31.488281 L 72.019531 25.300781 L 72.878906 25.300781 L 72.878906 32.412109 Z M 73.738281 32.412109 L 73.738281 25.300781 L 74.597656 25.300781 L 74.597656 31.488281 L 76.729980 31.488281 L 76.729980 32.412109 Z " fill="rgb(0, 0, 0)" fill-opacity="1.000000" />
<path d="M 76.892578 32.412109 L 76.892578 31.488281 L 83.729980 31.488281 L 83.729980 32.412109 Z M 76.892578 34.259766 L 76.892578 33.335938 L 83.729980 33.335938 L 83.729980 34.259766 Z " fill="rgb(0, 0, 0)" fill-opacity="1.000000" />
<path d="M 83.892578 32.412109 L 83.892578 31.488281 L 90.729980 31.488281 L 90.729980 32.412109 Z M 83.892578 34.259766 L 83.892578 33.335938 L 90.729980 33.335938 L 90.729980 34.259766 Z " fill="rgb(0, 0, 0)" fill-opacity="1.000000" />
<path d="M 90.892578 32.412109 L 90.892578 31.488281 L 97.729980 31.488281 L 97.729980 32.412109 Z M 90.892578 34.259766 L 90.892578 33.335938 L 97.729980 33.335938 L 97.729980 34.259766 Z " fill="rgb(0, 0, 0)" fill-opacity="1.000000" />
<path d="M 97.892578 32.412109 L 97.892578 31.488281 L 104.729980 31.488281 L 104.729980 32.412109 Z M 97.892578 34.259766 L 97.892578 33.335938 L 104.729980 33.335938 L 104.729980 34.259766 Z " fill="rgb(0, 0, 0)" fill-opacity="1.000000" />
<path d="M 104.892578 32.412109 L 104.892578 31.488281 L 107.019531 31.488281 L 107.019531 25.300781 L 107.878906 25.300781 L 107.878906 32.412109 Z M 107.019531 39.319336 L 107.019531 34.259766 L 104.892578 34.259766 L 104.892578 33.335938 L 107.878906 33.335938 L 107.878906 39.319336 Z M 108.738281 39.319336 L 108.738281 25.300781 L 109.597656 25.300781 L 109.597656 39.319336 Z " fill="rgb(0, 0, 0)" fill-opacity="1.000000" />
<path d="M 14.585449 22.672363 L 14.585449 21.404785 Q 15.074219 21.839844 15.595215 22.057373 Q 16.116211 22.274902 16.674805 22.274902 Q 17.442871 22.274902 17.746338 21.874756 Q 18.049805 21.474609 18.049805 20.384277 L 18.049805 15.894043 L 16.003418 15.894043 L 16.003418 14.980957 L 19.134766 14.980957 L 19.134766 20.384277 Q 19.134766 21.898926 18.568115 22.527344 Q 18.001465 23.155762 16.674805 23.155762 Q 16.159180 23.155762 15.648926 23.037598 Q 15.138672 22.919434 14.585449 22.672363 Z " fill="rgb(0, 0, 0)" fill-opacity="1.000000" />
<path d="M 26.435547 15.254883 L 26.435547 16.355957 Q 25.941406 16.039062 25.444580 15.877930 Q 24.947754 15.716797 24.442871 15.716797 Q 23.674805 15.716797 23.229004 16.073975 Q 22.783203 16.431152 22.783203 17.038086 Q 22.783203 17.569824 23.075928 17.849121 Q 23.368652 18.128418 24.168945 18.316406 L 24.738281 18.445312 Q 25.866211 18.708496 26.381836 19.272461 Q 26.897461 19.836426 26.897461 20.808594 Q 26.897461 21.952637 26.188477 22.554199 Q 25.479492 23.155762 24.125977 23.155762 Q 23.562012 23.155762 22.992676 23.034912 Q 22.423340 22.914062 21.848633 22.672363 L 21.848633 21.517578 Q 22.466309 21.909668 23.016846 22.092285 Q 23.567383 22.274902 24.125977 22.274902 Q 24.947754 22.274902 25.404297 21.906982 Q 25.860840 21.539062 25.860840 20.878418 Q 25.860840 20.276855 25.546631 19.959961 Q 25.232422 19.643066 24.453613 19.471191 L 23.873535 19.336914 Q 22.756348 19.084473 22.251465 18.574219 Q 21.746582 18.063965 21.746582 17.204590 Q 21.746582 16.130371 22.468994 15.483154 Q 23.191406 14.835938 24.389160 14.835938 Q 24.851074 14.835938 25.361328 14.940674 Q 25.871582 15.045410 26.435547 15.254883 Z " fill="rgb(0, 0, 0)" fill-opacity="1.000000" />
<path d="M 37.019531 26.319336 L 37.019531 12.300781 L 37.878906 12.300781 L 37.878906 26.319336 Z M 38.738281 26.319336 L 38.738281 12.300781 L 39.597656 12.300781 L 39.597656 26.319336 Z " fill="rgb(0, 0, 0)" fill-opacity="1.000000" />
<path d="M 54.929688 22.339355 Q 54.494629 22.742188 53.949463 22.948975 Q 53.404297 23.155762 52.770508 23.155762 Q 51.245117 23.155762 50.396484 22.062744 Q 49.547852 20.969727 49.547852 18.998535 Q 49.547852 17.032715 50.407227 15.934326 Q 51.266602 14.835938 52.797363 14.835938 Q 53.302246 14.835938 53.764160 14.978271 Q 54.226074 15.120605 54.655762 15.410645 L 54.655762 16.522461 Q 54.220703 16.108887 53.764160 15.912842 Q 53.307617 15.716797 52.797363 15.716797 Q 51.739258 15.716797 51.210205 16.535889 Q 50.681152 17.354980 50.681152 18.998535 Q 50.681152 20.668945 51.194092 21.471924 Q 51.707031 22.274902 52.770508 22.274902 Q 53.130371 22.274902 53.401611 22.191650 Q 53.672852 22.108398 53.893066 21.931152 L 53.893066 19.777344 L 52.727539 19.777344 L 52.727539 18.885742 L 54.929688 18.885742 Z " fill="rgb(0, 0, 0)" fill-opacity="1.000000" />
<path d="M 59.308594 17.677246 Q 58.556641 17.677246 58.169922 18.262695 Q 57.783203 18.848145 57.783203 19.997559 Q 57.783203 21.141602 58.169922 21.729736 Q 58.556641 22.317871 59.308594 22.317871 Q 60.065918 22.317871 60.452637 21.729736 Q 60.839355 21.141602 60.839355 19.997559 Q 60.839355 18.848145 60.452637 18.262695 Q 60.065918 17.677246 59.308594 17.677246 Z M 59.308594 16.839355 Q 60.560059 16.839355 61.223389 17.650391 Q 61.886719 18.461426 61.886719 19.997559 Q 61.886719 21.539062 61.226074 22.347412 Q 60.565430 23.155762 59.308594 23.155762 Q 58.057129 23.155762 57.396484 22.347412 Q 56.735840 21.539062 56.735840 19.997559 Q 56.735840 18.461426 57.396484 17.650391 Q 58.057129 16.839355 59.308594 16.839355 Z " fill="rgb(0, 0, 0)" fill-opacity="1.000000" />
<path d="M 72.019531 26.319336 L 72.019531 12.300781 L 72.878906 12.300781 L 72.878906 26.319336 Z M 73.738281 26.319336 L 73.738281 12.300781 L 74.597656 12.300781 L 74.597656 26.319336 Z " fill="rgb(0, 0, 0)" fill-opacity="1.000000" />
<path d="M 77.585449 22.672363 L 77.585449 21.404785 Q 78.074219 21.839844 78.595215 22.057373 Q 79.116211 22.274902 79.674805 22.274902 Q 80.442871 22.274902 80.746338 21.874756 Q 81.049805 21.474609 81.049805 20.384277 L 81.049805 15.894043 L 79.003418 15.894043 L 79.003418 14.980957 L 82.134766 14.980957 L 82.134766 20.384277 Q 82.134766 21.898926 81.568115 22.527344 Q 81.001465 23.155762 79.674805 23.155762 Q 79.159180 23.155762 78.648926 23.037598 Q 78.138672 22.919434 77.585449 22.672363 Z " fill="rgb(0, 0, 0)" fill-opacity="1.000000" />
<path d="M 87.770508 19.976074 L 87.442871 19.976074 Q 86.578125 19.976074 86.140381 20.279541 Q 85.702637 20.583008 85.702637 21.184570 Q 85.702637 21.727051 86.030273 22.027832 Q 86.357910 22.328613 86.937988 22.328613 Q 87.754395 22.328613 88.221680 21.761963 Q 88.688965 21.195312 88.694336 20.196289 L 88.694336 19.976074 Z M 89.687988 19.567871 L 89.687988 23.000000 L 88.694336 23.000000 L 88.694336 22.108398 Q 88.377441 22.645508 87.896729 22.900635 Q 87.416016 23.155762 86.728516 23.155762 Q 85.810059 23.155762 85.262207 22.637451 Q 84.714355 22.119141 84.714355 21.249023 Q 84.714355 20.244629 85.388428 19.723633 Q 86.062500 19.202637 87.367676 19.202637 L 88.694336 19.202637 L 88.694336 19.046875 Q 88.688965 18.327148 88.329102 18.002197 Q 87.969238 17.677246 87.179688 17.677246 Q 86.674805 17.677246 86.159180 17.822266 Q 85.643555 17.967285 85.154785 18.246582 L 85.154785 17.258301 Q 85.702637 17.048828 86.204834 16.944092 Q 86.707031 16.839355 87.179688 16.839355 Q 87.926270 16.839355 88.455322 17.059570 Q 88.984375 17.279785 89.312012 17.720215 Q 89.516113 17.988770 89.602051 18.383545 Q 89.687988 18.778320 89.687988 19.567871 Z " fill="rgb(0, 0, 0)" fill-opacity="1.000000" />
<path d="M 91.537109 16.984375 L 92.562988 16.984375 L 94.308594 22.033203 L 96.059570 16.984375 L 97.085449 16.984375 L 94.947754 23.000000 L 93.674805 23.000000 Z " fill="rgb(0, 0, 0)" fill-opacity="1.000000" />
<path d="M 101.770508 19.976074 L 101.442871 19.976074 Q 100.578125 19.976074 100.140381 20.279541 Q 99.702637 20.583008 99.702637 21.184570 Q 99.702637 21.727051 100.030273 22.027832 Q 100.357910 22.328613 100.937988 22.328613 Q 101.754395 22.328613 102.221680 21.761963 Q 102.688965 21.195312 102.694336 20.196289 L 102.694336 19.976074 Z M 103.687988 19.567871 L 103.687988 23.000000 L 102.694336 23.000000 L 102.694336 22.108398 Q 102.377441 22.645508 101.896729 22.900635 Q 101.416016 23.155762 100.728516 23.155762 Q 99.810059 23.155762 99.262207 22.637451 Q 98.714355 22.119141 98.714355 21.249023 Q 98.714355 20.244629 99.388428 19.723633 Q 100.062500 19.202637 101.367676 19.202637 L 102.694336 19.202637 L 102.694336 19.046875 Q 102.688965 18.327148 102.329102 18.002197 Q 101.969238 17.677246 101.179688 17.677246 Q 100.674805 17.677246 100.159180 17.822266 Q 99.643555 17.967285 99.154785 18.246582 L 99.154785 17.258301 Q 99.702637 17.048828 100.204834 16.944092 Q 100.707031 16.839355 101.179688 16.839355 Q 101.926270 16.839355 102.455322 17.059570 Q 102.984375 17.279785 103.312012 17.720215 Q 103.516113 17.988770 103.602051 18.383545 Q 103.687988 18.778320 103.687988 19.567871 Z " fill="rgb(0, 0, 0)" fill-opacity="1.000000" />
<path d="M 107.019531 26.319336 L 107.019531 12.300781 L 107.878906 12.300781 L 107.878906 26.319336 Z M 108.738281 26.319336 L 108.738281 12.300781 L 109.597656 12.300781 L 109.597656 26.319336 Z " fill="rgb(0, 0, 0)" fill-opacity="1.000000" />
<path d="M 6.892578 6.412109 L 6.892578 5.488281 L 13.729980 5.488281 L 13.729980 6.412109 Z M 6.892578 8.259766 L 6.892578 7.335938 L 13.729980 7.335938 L 13.729980 8.259766 Z " fill="rgb(0, 0, 0)" fill-opacity="1.000000" />
<path d="M 13.892578 6.412109 L 13.892578 5.488281 L 20.729980 5.488281 L 20.729980 6.412109 Z M 13.892578 8.259766 L 13.892578 7.335938 L 20.729980 7.335938 L 20.729980 8.259766 Z " fill="rgb(0, 0, 0)" fill-opacity="1.000000" />
<path d="M 20.892578 6.412109 L 20.892578 5.488281 L 27.729980 5.488281 L 27.729980 6.412109 Z M 20.892578 8.259766 L 20.892578 7.335938 L 27.729980 7.335938 L 27.729980 8.259766 Z " fill="rgb(0, 0, 0)" fill-opacity="1.000000" />
<path d="M 27.892578 6.412109 L 27.892578 5.488281 L 34.729980 5.488281 L 34.729980 6.412109 Z M 27.892578 8.259766 L 27.892578 7.335938 L 34.729980 7.335938 L 34.729980 8.259766 Z " fill="rgb(0, 0, 0)" fill-opacity="1.000000" />
<path d="M 34.892578 6.412109 L 34.892578 5.488281 L 41.729980 5.488281 L 41.729980 6.412109 Z M 37.019531 13.319336 L 37.019531 8.259766 L 34.892578 8.259766 L 34.892578 7.335938 L 37.878906 7.335938 L 37.878906 13.319336 Z M 38.738281 13.319336 L 38.738281 7.335938 L 41.729980 7.335938 L 41.729980 8.259766 L 39.597656 8.259766 L 39.597656 13.319336 Z " fill="rgb(0, 0, 0)" fill-opacity="1.000000" />
<path d="M 41.892578 6.412109 L 41.892578 5.488281 L 48.729980 5.488281 L 48.729980 6.412109 Z M 41.892578 8.259766 L 41.892578 7.335938 L 48.729980 7.335938 L 48.729980 8.259766 Z " fill="rgb(0, 0, 0)" fill-opacity="1.000000" />
<path d="M 48.892578 6.412109 L 48.892578 5.488281 L 55.729980 5.488281 L 55.729980 6.412109 Z M 48.892578 8.259766 L 48.892578 7.335938 L 55.729980 7.335938 L 55.729980 8.259766 Z " fill="rgb(0, 0, 0)" fill-opacity="1.000000" />
<path d="M 55.892578 6.412109 L 55.892578 5.488281 L 62.729980 5.488281 L 62.729980 6.412109 Z M 55.892578 8.259766 L 55.892578 7.335938 L 62.729980 7.335938 L 62.729980 8.259766 Z " fill="rgb(0, 0, 0)" fill-opacity="1.000000" />
<path d="M 62.892578 6.412109 L 62.892578 5.488281 L 69.729980 5.488281 L 69.729980 6.412109 Z M 62.892578 8.259766 L 62.892578 7.335938 L 69.729980 7.335938 L 69.729980 8.259766 Z " fill="rgb(0, 0, 0)" fill-opacity="1.000000" />
<path d="M 69.892578 6.412109 L 69.892578 5.488281 L 76.729980 5.488281 L 76.729980 6.412109 Z M 72.019531 13.319336 L 72.019531 8.259766 L 69.892578 8.259766 L 69.892578 7.335938 L 72.878906 7.335938 L 72.878906 13.319336 Z M 73.738281 13.319336 L 73.738281 7.335938 L 76.729980 7.335938 L 76.729980 8.259766 L 74.597656 8.259766 L 74.597656 13.319336 Z " fill="rgb(0, 0, 0)" fill-opacity="1.000000" />
<path d="M 76.892578 6.412109 L 76.892578 5.488281 L 83.729980 5.488281 L 83.729980 6.412109 Z M 76.892578 8.259766 L 76.892578 7.335938 L 83.729980 7.335938 L 83.729980 8.259766 Z " fill="rgb(0, 0, 0)" fill-opacity="1.000000" />
<path d="M 83.892578 6.412109 L 83.892578 5.488281 L 90.729980 5.488281 L 90.729980 6.412109 Z M 83.892578 8.259766 L 83.892578 7.335938 L 90.729980 7.335938 L 90.729980 8.259766 Z " fill="rgb(0, 0, 0)" fill-opacity="1.000000" />
<path d="M 90.892578 6.412109 L 90.892578 5.488281 L 97.729980 5.488281 L 97.729980 6.412109 Z M 90.892578 8.259766 L 90.892578 7.335938 L 97.729980 7.335938 L 97.729980 8.259766 Z " fill="rgb(0, 0, 0)" fill-opacity="1.000000" />
<path d="M 97.892578 6.412109 L 97.892578 5.488281 L 104.729980 5.488281 L 104.729980 6.412109 Z M 97.892578 8.259766 L 97.892578 7.335938 L 104.729980 7.335938 L 104.729980 8.259766 Z " fill="rgb(0, 0, 0)" fill-opacity="1.000000" />
<path d="M 108.738281 13.319336 L 108.738281 6.412109 L 104.892578 6.412109 L 104.892578 5.488281 L 109.597656 5.488281 L 109.597656 13.319336 Z M 107.019531 13.319336 L 107.019531 8.259766 L 104.892578 8.259766 L 104.892578 7.335938 L 107.878906 7.335938 L 107.878906 13.319336 Z " fill="rgb(0, 0, 0)" fill-opacity="1.000000" />
</svg>