<svg xmlns="http://www.w3.org/2000/svg" version="1.1" width="190" height="131">
<path d="M 2.019531 13.319336 L 2.019531 5.488281 L 6.729980 5.488281 L 6.729980 6.412109 L 2.878906 6.412109 L 2.878906 13.319336 Z M 3.738281 13.319336 L 3.738281 7.335938 L 6.729980 7.335938 L 6.729980 8.259766 L 4.597656 8.259766 L 4.597656 13.319336 Z " fill="rgb(255, 255, 255)" fill-opacity="1.000000" />
<path d="M 2.019531 26.319336 L 2.019531 12.300781 L 2.878906 12.300781 L 2.878906 26.319336 Z M 3.738281 26.319336 L 3.738281 12.300781 L 4.597656 12.300781 L 4.597656 26.319336 Z " fill="rgb(255, 255, 255)" fill-opacity="1.000000" />
<path d="M 3.738281 32.412109 L 3.738281 25.300781 L 4.597656 25.300781 L 4.597656 31.488281 L 6.729980 31.488281 L 6.729980 32.412109 Z M 2.019531 34.259766 L 2.019531 25.300781 L 2.878906 25.300781 L 2.878906 33.335938 L 6.729980 33.335938 L 6.729980 34.259766 Z " fill="rgb(255, 255, 255)" fill-opacity="1.000000" />
<path d="M 13.892578 116.750000 L 13.892578 105.535156 L 20.729980 105.535156 L 20.729980 116.750000 Z " fill="rgb(255, 255, 255)" fill-opacity="1.000000" />
<path d="M 20.892578 116.750000 L 20.892578 105.535156 L 27.729980 105.535156 L 27.729980 116.750000 Z " fill="rgb(255, 255, 255)" fill-opacity="1.000000" />
<path d="M 27.892578 116.750000 L 27.892578 105.535156 L 34.729980 105.535156 L 34.729980 116.750000 Z " fill="rgb(255, 255, 255)" fill-opacity="1.000000" />
<path d="M 34.892578 116.750000 L 34.892578 105.535156 L 41.729980 105.535156 L 41.729980 116.750000 Z " fill="rgb(255, 255, 255)" fill-opacity="1.000000" />
<path d="M 41.892578 116.750000 L 41.892578 105.535156 L 48.729980 105.535156 L 48.729980 116.750000 Z " fill="rgb(255, 255, 255)" fill-opacity="1.000000" />
<path d="M 48.892578 116.750000 L 48.892578 105.535156 L 55.729980 105.535156 L 55.729980 116.750000 Z " fill="rgb(255, 255, 255)" fill-opacity="1.000000" />
<path d="M 55.892578 116.750000 L 55.892578 105.535156 L 62.729980 105.535156 L 62.729980 116.750000 Z " fill="rgb(255, 255, 255)" fill-opacity="1.000000" />
<path d="M 125.892578 116.750000 L 125.892578 105.535156 L 132.729980 105.535156 L 132.729980 116.750000 Z " fill="rgb(255, 255, 255)" fill-opacity="1.000000" />
<path d="M 132.892578 116.750000 L 132.892578 105.535156 L 139.729980 105.535156 L 139.729980 116.750000 Z " fill="rgb(255, 255, 255)" fill-opacity="1.000000" />
<path d="M 139.892578 116.750000 L 139.892578 105.535156 L 146.729980 105.535156 L 146.729980 116.750000 Z " fill="rgb(255, 255, 255)" fill-opacity="1.000000" />
<path d="M 146.892578 116.750000 L 146.892578 105.535156 L 153.729980 105.535156 L 153.729980 116.750000 Z " fill="rgb(255, 255, 255)" fill-opacity="1.000000" />
<path d="M 153.892578 116.750000 L 153.892578 105.535156 L 160.729980 105.535156 L 160.729980 116.750000 Z " fill="rgb(255, 255, 255)" fill-opacity="1.000000" />
<path d="M 160.892578 116.750000 L 160.892578 105.535156 L 167.729980 105.535156 L 167.729980 116.750000 Z " fill="rgb(255, 255, 255)" fill-opacity="1.000000" />
<path d="M 167.892578 116.750000 L 167.892578 105.535156 L 174.729980 105.535156 L 174.729980 116.750000 Z " fill="rgb(255, 255, 255)" fill-opacity="1.000000" />
<path d="M 37.019531 104.319336 L 37.019531 90.300781 L 37.878906 90.300781 L 37.878906 104.319336 Z M 38.738281 104.319336 L 38.738281 90.300781 L 39.597656 90.300781 L 39.597656 104.319336 Z " fill="rgb(255, 255, 255)" fill-opacity="1.000000" />
<path d="M 149.019531 104.319336 L 149.019531 90.300781 L 149.878906 90.300781 L 149.878906 104.319336 Z M 150.738281 104.319336 L 150.738281 90.300781 L 151.597656 90.300781 L 151.597656 104.319336 Z " fill="rgb(255, 255, 255)" fill-opacity="1.000000" />
<path d="M 37.019531 52.319336 L 37.019531 38.300781 L 37.878906 38.300781 L 37.878906 52.319336 Z M 38.738281 52.319336 L 38.738281 38.300781 L 39.597656 38.300781 L 39.597656 52.319336 Z " fill="rgb(255, 255, 255)" fill-opacity="1.000000" />
<path d="M 37.019531 65.319336 L 37.019531 51.300781 L 37.878906 51.300781 L 37.878906 65.319336 Z M 38.738281 65.319336 L 38.738281 51.300781 L 39.597656 51.300781 L 39.597656 65.319336 Z " fill="rgb(255, 255, 255)" fill-opacity="1.000000" />
<path d="M 37.019531 78.319336 L 37.019531 64.300781 L 37.878906 64.300781 L 37.878906 78.319336 Z M 38.738281 78.319336 L 38.738281 64.300781 L 39.597656 64.300781 L 39.597656 78.319336 Z " fill="rgb(255, 255, 255)" fill-opacity="1.000000" />
<path d="M 37.019531 91.319336 L 37.019531 77.300781 L 37.878906 77.300781 L 37.878906 91.319336 Z M 38.738281 91.319336 L 38.738281 77.300781 L 39.597656 77.300781 L 39.597656 91.319336 Z " fill="rgb(255, 255, 255)" fill-opacity="1.000000" />
<path d="M 41.892578 59.335938 L 41.892578 58.412109 L 48.729980 58.412109 L 48.729980 59.335938 Z " fill="rgb(255, 255, 255)" fill-opacity="1.000000" />
<path d="M 48.892578 59.335938 L 48.892578 58.412109 L 55.729980 58.412109 L 55.729980 59.335938 Z " fill="rgb(255, 255, 255)" fill-opacity="1.000000" />
<path d="M 55.892578 59.335938 L 55.892578 58.412109 L 62.729980 58.412109 L 62.729980 59.335938 Z " fill="rgb(255, 255, 255)" fill-opacity="1.000000" />
<path d="M 62.892578 59.335938 L 62.892578 58.412109 L 69.729980 58.412109 L 69.729980 59.335938 Z " fill="rgb(255, 255, 255)" fill-opacity="1.000000" />
<path d="M 69.892578 59.335938 L 69.892578 58.412109 L 76.729980 58.412109 L 76.729980 59.335938 Z " fill="rgb(255, 255, 255)" fill-opacity="1.000000" />
<path d="M 42.032227 85.142578 L 48.590332 81.866211 L 48.590332 88.418945 Z " fill="rgb(255, 255, 255)" fill-opacity="1.000000" />
<path d="M 48.892578 85.335938 L 48.892578 84.412109 L 55.729980 84.412109 L 55.729980 85.335938 Z " fill="rgb(255, 255, 255)" fill-opacity="1.000000" />
<path d="M 55.892578 85.335938 L 55.892578 84.412109 L 62.729980 84.412109 L 62.729980 85.335938 Z " fill="rgb(255, 255, 255)" fill-opacity="1.000000" />
<path d="M 62.892578 85.335938 L 62.892578 84.412109 L 69.729980 84.412109 L 69.729980 85.335938 Z " fill="rgb(255, 255, 255)" fill-opacity="1.000000" />
<path d="M 69.892578 85.335938 L 69.892578 84.412109 L 76.729980 84.412109 L 76.729980 85.335938 Z " fill="rgb(255, 255, 255)" fill-opacity="1.000000" />
<path d="M 80.023926 79.105469 L 82.301270 79.105469 L 82.301270 79.873535 L 81.012207 79.873535 L 81.012207 88.145020 L 82.301270 88.145020 L 82.301270 88.913086 L 80.023926 88.913086 Z " fill="rgb(255, 255, 255)" fill-opacity="1.000000" />
<path d="M 88.930664 84.997559 Q 88.930664 83.848145 88.565430 83.262695 Q 88.200195 82.677246 87.485840 82.677246 Q 86.766113 82.677246 86.395508 83.265381 Q 86.024902 83.853516 86.024902 84.997559 Q 86.024902 86.136230 86.395508 86.727051 Q 86.766113 87.317871 87.485840 87.317871 Q 88.200195 87.317871 88.565430 86.732422 Q 88.930664 86.146973 88.930664 84.997559 Z M 86.024902 82.752441 Q 86.261230 82.312012 86.677490 82.075684 Q 87.093750 81.839355 87.641602 81.839355 Q 88.726562 81.839355 89.349609 82.674561 Q 89.972656 83.509766 89.972656 84.976074 Q 89.972656 86.463867 89.346924 87.309814 Q 88.721191 88.155762 87.630859 88.155762 Q 87.093750 88.155762 86.682861 87.922119 Q 86.271973 87.688477 86.024902 87.242676 L 86.024902 88.000000 L 85.036621 88.000000 L 85.036621 79.642578 L 86.024902 79.642578 Z " fill="rgb(255, 255, 255)" fill-opacity="1.000000" />
<path d="M 94.770508 84.976074 L 94.442871 84.976074 Q 93.578125 84.976074 93.140381 85.279541 Q 92.702637 85.583008 92.702637 86.184570 Q 92.702637 86.727051 93.030273 87.027832 Q 93.357910 87.328613 93.937988 87.328613 Q 94.754395 87.328613 95.221680 86.761963 Q 95.688965 86.195312 95.694336 85.196289 L 95.694336 84.976074 Z M 96.687988 84.567871 L 96.687988 88.000000 L 95.694336 88.000000 L 95.694336 87.108398 Q 95.377441 87.645508 94.896729 87.900635 Q 94.416016 88.155762 93.728516 88.155762 Q 92.810059 88.155762 92.262207 87.637451 Q 91.714355 87.119141 91.714355 86.249023 Q 91.714355 85.244629 92.388428 84.723633 Q 93.062500 84.202637 94.367676 84.202637 L 95.694336 84.202637 L 95.694336 84.046875 Q 95.688965 83.327148 95.329102 83.002197 Q 94.969238 82.677246 94.179688 82.677246 Q 93.674805 82.677246 93.159180 82.822266 Q 92.643555 82.967285 92.154785 83.246582 L 92.154785 82.258301 Q 92.702637 82.048828 93.204834 81.944092 Q 93.707031 81.839355 94.179688 81.839355 Q 94.926270 81.839355 95.455322 82.059570 Q 95.984375 82.279785 96.312012 82.720215 Q 96.516113 82.988770 96.602051 83.383545 Q 96.687988 83.778320 96.687988 84.567871 Z " fill="rgb(255, 255, 255)" fill-opacity="1.000000" />
<path d="M 104.203613 83.225098 Q 103.886719 82.978027 103.559082 82.865234 Q 103.231445 82.752441 102.839355 82.752441 Q 101.915527 82.752441 101.426758 83.332520 Q 100.937988 83.912598 100.937988 85.008301 L 100.937988 88.000000 L 99.944336 88.000000 L 99.944336 81.984375 L 100.937988 81.984375 L 100.937988 83.160645 Q 101.185059 82.521484 101.697998 82.180420 Q 102.210938 81.839355 102.914551 81.839355 Q 103.279785 81.839355 103.596680 81.930664 Q 103.913574 82.021973 104.203613 82.215332 Z " fill="rgb(255, 255, 255)" fill-opacity="1.000000" />
<path d="M 108.867188 79.105469 L 108.867188 88.913086 L 106.589844 88.913086 L 106.589844 88.145020 L 107.878906 88.145020 L 107.878906 79.873535 L 106.589844 79.873535 L 106.589844 79.105469 Z " fill="rgb(255, 255, 255)" fill-opacity="1.000000" />
<path d="M 111.892578 85.335938 L 111.892578 84.412109 L 118.729980 84.412109 L 118.729980 85.335938 Z " fill="rgb(255, 255, 255)" fill-opacity="1.000000" />
<path d="M 118.892578 85.335938 L 118.892578 84.412109 L 125.729980 84.412109 L 125.729980 85.335938 Z " fill="rgb(255, 255, 255)" fill-opacity="1.000000" />
<path d="M 125.892578 85.335938 L 125.892578 84.412109 L 132.729980 84.412109 L 132.729980 85.335938 Z " fill="rgb(255, 255, 255)" fill-opacity="1.000000" />
<path d="M 132.892578 85.335938 L 132.892578 84.412109 L 139.729980 84.412109 L 139.729980 85.335938 Z " fill="rgb(255, 255, 255)" fill-opacity="1.000000" />
<path d="M 139.892578 85.335938 L 139.892578 84.412109 L 146.729980 84.412109 L 146.729980 85.335938 Z " fill="rgb(255, 255, 255)" fill-opacity="1.000000" />
<path d="M 149.019531 91.319336 L 149.019531 77.300781 L 149.878906 77.300781 L 149.878906 91.319336 Z M 150.738281 91.319336 L 150.738281 77.300781 L 151.597656 77.300781 L 151.597656 91.319336 Z " fill="rgb(255, 255, 255)" fill-opacity="1.000000" />
<path d="M 149.019531 78.319336 L 149.019531 64.300781 L 149.878906 64.300781 L 149.878906 78.319336 Z M 150.738281 78.319336 L 150.738281 64.300781 L 151.597656 64.300781 L 151.597656 78.319336 Z " fill="rgb(255, 255, 255)" fill-opacity="1.000000" />
<path d="M 80.023926 53.105469 L 82.301270 53.105469 L 82.301270 53.873535 L 81.012207 53.873535 L 81.012207 62.145020 L 82.301270 62.145020 L 82.301270 62.913086 L 80.023926 62.913086 Z " fill="rgb(255, 255, 255)" fill-opacity="1.000000" />
<path d="M 89.709473 53.642578 L 89.709473 54.464355 L 88.586914 54.464355 Q 88.055176 54.464355 87.848389 54.681885 Q 87.641602 54.899414 87.641602 55.452637 L 87.641602 55.984375 L 89.709473 55.984375 L 89.709473 56.752441 L 87.641602 56.752441 L 87.641602 62.000000 L 86.653320 62.000000 L 86.653320 56.752441 L 85.047363 56.752441 L 85.047363 55.984375 L 86.653320 55.984375 L 86.653320 55.565430 Q 86.653320 54.577148 87.107178 54.109863 Q 87.561035 53.642578 88.522461 53.642578 Z " fill="rgb(255, 255, 255)" fill-opacity="1.000000" />
<path d="M 94.308594 56.677246 Q 93.556641 56.677246 93.169922 57.262695 Q 92.783203 57.848145 92.783203 58.997559 Q 92.783203 60.141602 93.169922 60.729736 Q 93.556641 61.317871 94.308594 61.317871 Q 95.065918 61.317871 95.452637 60.729736 Q 95.839355 60.141602 95.839355 58.997559 Q 95.839355 57.848145 95.452637 57.262695 Q 95.065918 56.677246 94.308594 56.677246 Z M 94.308594 55.839355 Q 95.560059 55.839355 96.223389 56.650391 Q 96.886719 57.461426 96.886719 58.997559 Q 96.886719 60.539062 96.226074 61.347412 Q 95.565430 62.155762 94.308594 62.155762 Q 93.057129 62.155762 92.396484 61.347412 Q 91.735840 60.539062 91.735840 58.997559 Q 91.735840 57.461426 92.396484 56.650391 Q 93.057129 55.839355 94.308594 55.839355 Z " fill="rgb(255, 255, 255)" fill-opacity="1.000000" />
<path d="M 101.308594 56.677246 Q 100.556641 56.677246 100.169922 57.262695 Q 99.783203 57.848145 99.783203 58.997559 Q 99.783203 60.141602 100.169922 60.729736 Q 100.556641 61.317871 101.308594 61.317871 Q 102.065918 61.317871 102.452637 60.729736 Q 102.839355 60.141602 102.839355 58.997559 Q 102.839355 57.848145 102.452637 57.262695 Q 102.065918 56.677246 101.308594 56.677246 Z M 101.308594 55.839355 Q 102.560059 55.839355 103.223389 56.650391 Q 103.886719 57.461426 103.886719 58.997559 Q 103.886719 60.539062 103.226074 61.347412 Q 102.565430 62.155762 101.308594 62.155762 Q 100.057129 62.155762 99.396484 61.347412 Q 98.735840 60.539062 98.735840 58.997559 Q 98.735840 57.461426 99.396484 56.650391 Q 100.057129 55.839355 101.308594 55.839355 Z " fill="rgb(255, 255, 255)" fill-opacity="1.000000" />
<path d="M 108.867188 53.105469 L 108.867188 62.913086 L 106.589844 62.913086 L 106.589844 62.145020 L 107.878906 62.145020 L 107.878906 53.873535 L 106.589844 53.873535 L 106.589844 53.105469 Z " fill="rgb(255, 255, 255)" fill-opacity="1.000000" />
<path d="M 111.892578 59.335938 L 111.892578 58.412109 L 118.729980 58.412109 L 118.729980 59.335938 Z " fill="rgb(255, 255, 255)" fill-opacity="1.000000" />
<path d="M 118.892578 59.335938 L 118.892578 58.412109 L 125.729980 58.412109 L 125.729980 59.335938 Z " fill="rgb(255, 255, 255)" fill-opacity="1.000000" />
<path d="M 125.892578 59.335938 L 125.892578 58.412109 L 132.729980 58.412109 L 132.729980 59.335938 Z " fill="rgb(255, 255, 255)" fill-opacity="1.000000" />
<path d="M 132.892578 59.335938 L 132.892578 58.412109 L 139.729980 58.412109 L 139.729980 59.335938 Z " fill="rgb(255, 255, 255)" fill-opacity="1.000000" />
<path d="M 140.032227 62.418945 L 140.032227 55.866211 L 146.590332 59.142578 Z " fill="rgb(255, 255, 255)" fill-opacity="1.000000" />
<path d="M 149.019531 65.319336 L 149.019531 51.300781 L 149.878906 51.300781 L 149.878906 65.319336 Z M 150.738281 65.319336 L 150.738281 51.300781 L 151.597656 51.300781 L 151.597656 65.319336 Z " fill="rgb(255, 255, 255)" fill-opacity="1.000000" />
<path d="M 149.019531 52.319336 L 149.019531 38.300781 L 149.878906 38.300781 L 149.878906 52.319336 Z M 150.738281 52.319336 L 150.738281 38.300781 L 151.597656 38.300781 L 151.597656 52.319336 Z " fill="rgb(255, 255, 255)" fill-opacity="1.000000" />
<path d="M 6.892578 32.412109 L 6.892578 31.488281 L 13.729980 31.488281 L 13.729980 32.412109 Z M 6.892578 34.259766 L 6.892578 33.335938 L 13.729980 33.335938 L 13.729980 34.259766 Z " fill="rgb(255, 255, 255)" fill-opacity="1.000000" />
<path d="M 13.892578 32.412109 L 13.892578 31.488281 L 20.729980 31.488281 L 20.729980 32.412109 Z M 13.892578 34.259766 L 13.892578 33.335938 L 20.729980 33.335938 L 20.729980 34.259766 Z " fill="rgb(255, 255, 255)" fill-opacity="1.000000" />
<path d="M 20.892578 32.412109 L 20.892578 31.488281 L 27.729980 31.488281 L 27.729980 32.412109 Z M 20.892578 34.259766 L 20.892578 33.335938 L 27.729980 33.335938 L 27.729980 34.259766 Z " fill="rgb(255, 255, 255)" fill-opacity="1.000000" />
<path d="M 27.892578 32.412109 L 27.892578 31.488281 L 34.729980 31.488281 L 34.729980 32.412109 Z M 27.892578 34.259766 L 27.892578 33.335938 L 34.729980 33.335938 L 34.729980 34.259766 Z " fill="rgb(255, 255, 255)" fill-opacity="1.000000" />
<path d="M 34.892578 32.412109 L 34.892578 31.488281 L 41.729980 31.488281 L 41.729980 32.412109 Z M 37.019531 39.319336 L 37.019531 34.259766 L 34.892578 34.259766 L 34.892578 33.335938 L 37.878906 33.335938 L 37.878906 39.319336 Z M 38.738281 39.319336 L 38.738281 33.335938 L 41.729980 33.335938 L 41.729980 34.259766 L 39.597656 34.259766 L 39.597656 39.319336 Z " fill="rgb(255, 255, 255)" fill-opacity="1.000000" />
<path d="M 41.892578 32.412109 L 41.892578 31.488281 L 48.729980 31.488281 L 48.729980 32.412109 Z M 41.892578 34.259766 L 41.892578 33.335938 L 48.729980 33.335938 L 48.729980 34.259766 Z " fill="rgb(255, 255, 255)" fill-opacity="1.000000" />
<path d="M 48.892578 32.412109 L 48.892578 31.488281 L 55.729980 31.488281 L 55.729980 32.412109 Z M 48.892578 34.259766 L 48.892578 33.335938 L 55.729980 33.335938 L 55.729980 34.259766 Z " fill="rgb(255, 255, 255)" fill-opacity="1.000000" />
<path d="M 55.892578 32.412109 L 55.892578 31.488281 L 62.729980 31.488281 L 62.729980 32.412109 Z M 55.892578 34.259766 L 55.892578 33.335938 L 62.729980 33.335938 L 62.729980 34.259766 Z " fill="rgb(255, 255, 255)" fill-opacity="1.000000" />
<path d="M 62.892578 32.412109 L 62.892578 31.488281 L 69.729980 31.488281 L 69.729980 32.412109 Z M 62.892578 34.259766 L 62.892578 33.335938 L 69.729980 33.335938 L 69.729980 34.259766 Z " fill="rgb(255, 255, 255)" fill-opacity="1.000000" />
<path d="M 69.892578 32.412109 L 69.892578 31.488281 L 72.019531 31.488281 L 72.019531 25.300781 L 72.878906 25.300781 L 72.878906 32.412109 Z M 69.892578 34.259766 L 69.892578 33.335938 L 73.738281 33.335938 L 73.738281 25.300781 L 74.597656 25.300781 L 74.597656 34.259766 Z " fill="rgb(255, 255, 255)" fill-opacity="1.000000" />
<path d="M 115.738281 32.412109 L 115.738281 25.300781 L 116.597656 25.300781 L 116.597656 31.488281 L 118.729980 31.488281 L 118.729980 32.412109 Z M 114.019531 34.259766 L 114.019531 25.300781 L 114.878906 25.300781 L 114.878906 33.335938 L 118.729980 33.335938 L 118.729980 34.259766 Z " fill="rgb(255, 255, 255)" fill-opacity="1.000000" />
<path d="M 118.892578 32.412109 L 118.892578 31.488281 L 125.729980 31.488281 L 125.729980 32.412109 Z M 118.892578 34.259766 L 118.892578 33.335938 L 125.729980 33.335938 L 125.729980 34.259766 Z " fill="rgb(255, 255, 255)" fill-opacity="1.000000" />
<path d="M 125.892578 32.412109 L 125.892578 31.488281 L 132.729980 31.488281 L 132.729980 32.412109 Z M 125.892578 34.259766 L 125.892578 33.335938 L 132.729980 33.335938 L 132.729980 34.259766 Z " fill="rgb(255, 255, 255)" fill-opacity="1.000000" />
<path d="M 132.892578 32.412109 L 132.892578 31.488281 L 139.729980 31.488281 L 139.729980 32.412109 Z M 132.892578 34.259766 L 132.892578 33.335938 L 139.729980 33.335938 L 139.729980 34.259766 Z " fill="rgb(255, 255, 255)" fill-opacity="1.000000" />
<path d="M 139.892578 32.412109 L 139.892578 31.488281 L 146.729980 31.488281 L 146.729980 32.412109 Z M 139.892578 34.259766 L 139.892578 33.335938 L 146.729980 33.335938 L 146.729980 34.259766 Z " fill="rgb(255, 255, 255)" fill-opacity="1.000000" />
<path d="M 146.892578 32.412109 L 146.892578 31.488281 L 153.729980 31.488281 L 153.729980 32.412109 Z M 149.019531 39.319336 L 149.019531 34.259766 L 146.892578 34.259766 L 146.892578 33.335938 L 149.878906 33.335938 L 149.878906 39.319336 Z M 150.738281 39.319336 L 150.738281 33.335938 L 153.729980 33.335938 L 153.729980 34.259766 L 151.597656 34.259766 L 151.597656 39.319336 Z " fill="rgb(255, 255, 255)" fill-opacity="1.000000" />
<path d="M 153.892578 32.412109 L 153.892578 31.488281 L 160.729980 31.488281 L 160.729980 32.412109 Z M 153.892578 34.259766 L 153.892578 33.335938 L 160.729980 33.335938 L 160.729980 34.259766 Z " fill="rgb(255, 255, 255)" fill-opacity="1.000000" />
<path d="M 160.892578 32.412109 L 160.892578 31.488281 L 167.729980 31.488281 L 167.729980 32.412109 Z M 160.892578 34.259766 L 160.892578 33.335938 L 167.729980 33.335938 L 167.729980 34.259766 Z " fill="rgb(255, 255, 255)" fill-opacity="1.000000" />
<path d="M 167.892578 32.412109 L 167.892578 31.488281 L 174.729980 31.488281 L 174.729980 32.412109 Z M 167.892578 34.259766 L 167.892578 33.335938 L 174.729980 33.335938 L 174.729980 34.259766 Z " fill="rgb(255, 255, 255)" fill-opacity="1.000000" />
<path d="M 174.892578 32.412109 L 174.892578 31.488281 L 181.729980 31.488281 L 181.729980 32.412109 Z M 174.892578 34.259766 L 174.892578 33.335938 L 181.729980 33.335938 L 181.729980 34.259766 Z " fill="rgb(255, 255, 255)" fill-opacity="1.000000" />
<path d="M 181.892578 32.412109 L 181.892578 31.488281 L 184.019531 31.488281 L 184.019531 25.300781 L 184.878906 25.300781 L 184.878906 32.412109 Z M 181.892578 34.259766 L 181.892578 33.335938 L 185.738281 33.335938 L 185.738281 25.300781 L 186.597656 25.300781 L 186.597656 34.259766 Z " fill="rgb(255, 255, 255)" fill-opacity="1.000000" />
<path d="M 38.770508 19.976074 L 38.442871 19.976074 Q 37.578125 19.976074 37.140381 20.279541 Q 36.702637 20.583008 36.702637 21.184570 Q 36.702637 21.727051 37.030273 22.027832 Q 37.357910 22.328613 37.937988 22.328613 Q 38.754395 22.328613 39.221680 21.761963 Q 39.688965 21.195312 39.694336 20.196289 L 39.694336 19.976074 Z M 40.687988 19.567871 L 40.687988 23.000000 L 39.694336 23.000000 L 39.694336 22.108398 Q 39.377441 22.645508 38.896729 22.900635 Q 38.416016 23.155762 37.728516 23.155762 Q 36.810059 23.155762 36.262207 22.637451 Q 35.714355 22.119141 35.714355 21.249023 Q 35.714355 20.244629 36.388428 19.723633 Q 37.062500 19.202637 38.367676 19.202637 L 39.694336 19.202637 L 39.694336 19.046875 Q 39.688965 18.327148 39.329102 18.002197 Q 38.969238 17.677246 38.179688 17.677246 Q 37.674805 17.677246 37.159180 17.822266 Q 36.643555 17.967285 36.154785 18.246582 L 36.154785 17.258301 Q 36.702637 17.048828 37.204834 16.944092 Q 37.707031 16.839355 38.179688 16.839355 Q 38.926270 16.839355 39.455322 17.059570 Q 39.984375 17.279785 40.312012 17.720215 Q 40.516113 17.988770 40.602051 18.383545 Q 40.687988 18.778320 40.687988 19.567871 Z " fill="rgb(255, 255, 255)" fill-opacity="1.000000" />
<path d="M 72.019531 26.319336 L 72.019531 12.300781 L 72.878906 12.300781 L 72.878906 26.319336 Z M 73.738281 26.319336 L 73.738281 12.300781 L 74.597656 12.300781 L 74.597656 26.319336 Z " fill="rgb(255, 255, 255)" fill-opacity="1.000000" />
<path d="M 114.019531 26.319336 L 114.019531 12.300781 L 114.878906 12.300781 L 114.878906 26.319336 Z M 115.738281 26.319336 L 115.738281 12.300781 L 116.597656 12.300781 L 116.597656 26.319336 Z " fill="rgb(255, 255, 255)" fill-opacity="1.000000" />
<path d="M 151.930664 19.997559 Q 151.930664 18.848145 151.565430 18.262695 Q 151.200195 17.677246 150.485840 17.677246 Q 149.766113 17.677246 149.395508 18.265381 Q 149.024902 18.853516 149.024902 19.997559 Q 149.024902 21.136230 149.395508 21.727051 Q 149.766113 22.317871 150.485840 22.317871 Q 151.200195 22.317871 151.565430 21.732422 Q 151.930664 21.146973 151.930664 19.997559 Z M 149.024902 17.752441 Q 149.261230 17.312012 149.677490 17.075684 Q 150.093750 16.839355 150.641602 16.839355 Q 151.726562 16.839355 152.349609 17.674561 Q 152.972656 18.509766 152.972656 19.976074 Q 152.972656 21.463867 152.346924 22.309814 Q 151.721191 23.155762 150.630859 23.155762 Q 150.093750 23.155762 149.682861 22.922119 Q 149.271973 22.688477 149.024902 22.242676 L 149.024902 23.000000 L 148.036621 23.000000 L 148.036621 14.642578 L 149.024902 14.642578 Z " fill="rgb(255, 255, 255)" fill-opacity="1.000000" />
<path d="M 184.019531 26.319336 L 184.019531 12.300781 L 184.878906 12.300781 L 184.878906 26.319336 Z M 185.738281 26.319336 L 185.738281 12.300781 L 186.597656 12.300781 L 186.597656 26.319336 Z " fill="rgb(255, 255, 255)" fill-opacity="1.000000" />
<path d="M 6.892578 6.412109 L 6.892578 5.488281 L 13.729980 5.488281 L 13.729980 6.412109 Z M 6.892578 8.259766 L 6.892578 7.335938 L 13.729980 7.335938 L 13.729980 8.259766 Z " fill="rgb(255, 255, 255)" fill-opacity="1.000000" />
<path d="M 13.892578 6.412109 L 13.892578 5.488281 L 20.729980 5.488281 L 20.729980 6.412109 Z M 13.892578 8.259766 L 13.892578 7.335938 L 20.729980 7.335938 L 20.729980 8.259766 Z " fill="rgb(255, 255, 255)" fill-opacity="1.000000" />
<path d="M 20.892578 6.412109 L 20.892578 5.488281 L 27.729980 5.488281 L 27.729980 6.412109 Z M 20.892578 8.259766 L 20.892578 7.335938 L 27.729980 7.335938 L 27.729980 8.259766 Z " fill="rgb(255, 255, 255)" fill-opacity="1.000000" />
<path d="M 27.892578 6.412109 L 27.892578 5.488281 L 34.729980 5.488281 L 34.729980 6.412109 Z M 27.892578 8.259766 L 27.892578 7.335938 L 34.729980 7.335938 L 34.729980 8.259766 Z " fill="rgb(255, 255, 255)" fill-opacity="1.000000" />
<path d="M 34.892578 6.412109 L 34.892578 5.488281 L 41.729980 5.488281 L 41.729980 6.412109 Z M 34.892578 8.259766 L 34.892578 7.335938 L 41.729980 7.335938 L 41.729980 8.259766 Z " fill="rgb(255, 255, 255)" fill-opacity="1.000000" />
<path d="M 41.892578 6.412109 L 41.892578 5.488281 L 48.729980 5.488281 L 48.729980 6.412109 Z M 41.892578 8.259766 L 41.892578 7.335938 L 48.729980 7.335938 L 48.729980 8.259766 Z " fill="rgb(255, 255, 255)" fill-opacity="1.000000" />
<path d="M 48.892578 6.412109 L 48.892578 5.488281 L 55.729980 5.488281 L 55.729980 6.412109 Z M 48.892578 8.259766 L 48.892578 7.335938 L 55.729980 7.335938 L 55.729980 8.259766 Z " fill="rgb(255, 255, 255)" fill-opacity="1.000000" />
<path d="M 55.892578 6.412109 L 55.892578 5.488281 L 62.729980 5.488281 L 62.729980 6.412109 Z M 55.892578 8.259766 L 55.892578 7.335938 L 62.729980 7.335938 L 62.729980 8.259766 Z " fill="rgb(255, 255, 255)" fill-opacity="1.000000" />
<path d="M 62.892578 6.412109 L 62.892578 5.488281 L 69.729980 5.488281 L 69.729980 6.412109 Z M 62.892578 8.259766 L 62.892578 7.335938 L 69.729980 7.335938 L 69.729980 8.259766 Z " fill="rgb(255, 255, 255)" fill-opacity="1.000000" />
<path d="M 73.738281 13.319336 L 73.738281 6.412109 L 69.892578 6.412109 L 69.892578 5.488281 L 74.597656 5.488281 L 74.597656 13.319336 Z M 72.019531 13.319336 L 72.019531 8.259766 L 69.892578 8.259766 L 69.892578 7.335938 L 72.878906 7.335938 L 72.878906 13.319336 Z " fill="rgb(255, 255, 255)" fill-opacity="1.000000" />
<path d="M 114.019531 13.319336 L 114.019531 5.488281 L 118.729980 5.488281 L 118.729980 6.412109 L 114.878906 6.412109 L 114.878906 13.319336 Z M 115.738281 13.319336 L 115.738281 7.335938 L 118.729980 7.335938 L 118.729980 8.259766 L 116.597656 8.259766 L 116.597656 13.319336 Z " fill="rgb(255, 255, 255)" fill-opacity="1.000000" />
<path d="M 118.892578 6.412109 L 118.892578 5.488281 L 125.729980 5.488281 L 125.729980 6.412109 Z M 118.892578 8.259766 L 118.892578 7.335938 L 125.729980 7.335938 L 125.729980 8.259766 Z " fill="rgb(255, 255, 255)" fill-opacity="1.000000" />
<path d="M 125.892578 6.412109 L 125.892578 5.488281 L 132.729980 5.488281 L 132.729980 6.412109 Z M 125.892578 8.259766 L 125.892578 7.335938 L 132.729980 7.335938 L 132.729980 8.259766 Z " fill="rgb(255, 255, 255)" fill-opacity="1.000000" />
<path d="M 132.892578 6.412109 L 132.892578 5.488281 L 139.729980 5.488281 L 139.729980 6.412109 Z M 132.892578 8.259766 L 132.892578 7.335938 L 139.729980 7.335938 L 139.729980 8.259766 Z " fill="rgb(255, 255, 255)" fill-opacity="1.000000" />
<path d="M 139.892578 6.412109 L 139.892578 5.488281 L 146.729980 5.488281 L 146.729980 6.412109 Z M 139.892578 8.259766 L 139.892578 7.335938 L 146.729980 7.335938 L 146.729980 8.259766 Z " fill="rgb(255, 255, 255)" fill-opacity="1.000000" />
<path d="M 146.892578 6.412109 L 146.892578 5.488281 L 153.729980 5.488281 L 153.729980 6.412109 Z M 146.892578 8.259766 L 146.892578 7.335938 L 153.729980 7.335938 L 153.729980 8.259766 Z " fill="rgb(255, 255, 255)" fill-opacity="1.000000" />
<path d="M 153.892578 6.412109 L 153.892578 5.488281 L 160.729980 5.488281 L 160.729980 6.412109 Z M 153.892578 8.259766 L 153.892578 7.335938 L 160.729980 7.335938 L 160.729980 8.259766 Z " fill="rgb(255, 255, 255)" fill-opacity="1.000000" />
<path d="M 160.892578 6.412109 L 160.892578 5.488281 L 167.729980 5.488281 L 167.729980 6.412109 Z M 160.892578 8.259766 L 160.892578 7.335938 L 167.729980 7.335938 L 167.729980 8.259766 Z " fill="rgb(255, 255, 255)" fill-opacity="1.000000" />
<path d="M 167.892578 6.412109 L 167.892578 5.488281 L 174.729980 5.488281 L 174.729980 6.412109 Z M 167.892578 8.259766 L 167.892578 7.335938 L 174.729980 7.335938 L 174.729980 8.259766 Z " fill="rgb(255, 255, 255)" fill-opacity="1.000000" />
<path d="M 174.892578 6.412109 L 174.892578 5.488281 L 181.729980 5.488281 L 181.729980 6.412109 Z M 174.892578 8.259766 L 174.892578 7.335938 L 181.729980 7.335938 L 181.729980 8.259766 Z " fill="rgb(255, 255, 255)" fill-opacity="1.000000" />
<path d="M 185.738281 13.319336 L 185.738281 6.412109 L 181.892578 6.412109 L 181.892578 5.488281 L 186.597656 5.488281 L 186.597656 13.319336 Z M 184.019531 13.319336 L 184.019531 8.259766 L 181.892578 8.259766 L 181.892578 7.335938 L 184.878906 7.335938 L 184.878906 13.319336 Z " fill="rgb(255, 255, 255)" fill-opacity="1.000000" />
</svg>