<svg xmlns="http://www.w3.org/2000/svg" version="1.1" width="190" height="105">
<path d="M -0.107422 33.335938 L -0.107422 32.412109 L 6.729980 32.412109 L 6.729980 33.335938 Z " fill="rgb(255, 255, 255)" fill-opacity="1.000000" />
<path d="M 6.892578 33.335938 L 6.892578 32.412109 L 13.729980 32.412109 L 13.729980 33.335938 Z " fill="rgb(255, 255, 255)" fill-opacity="1.000000" />
<path d="M 13.892578 33.335938 L 13.892578 32.412109 L 20.729980 32.412109 L 20.729980 33.335938 Z " fill="rgb(255, 255, 255)" fill-opacity="1.000000" />
<path d="M 30.019531 52.319336 L 30.019531 38.300781 L 30.878906 38.300781 L 30.878906 52.319336 Z M 31.738281 52.319336 L 31.738281 38.300781 L 32.597656 38.300781 L 32.597656 52.319336 Z " fill="rgb(255, 255, 255)" fill-opacity="1.000000" />
<path d="M 31.738281 58.412109 L 31.738281 51.300781 L 32.597656 51.300781 L 32.597656 57.488281 L 34.729980 57.488281 L 34.729980 58.412109 Z M 30.019531 60.259766 L 30.019531 51.300781 L 30.878906 51.300781 L 30.878906 59.335938 L 34.729980 59.335938 L 34.729980 60.259766 Z " fill="rgb(255, 255, 255)" fill-opacity="1.000000" />
<path d="M 72.019531 78.319336 L 72.019531 70.488281 L 76.729980 70.488281 L 76.729980 71.412109 L 72.878906 71.412109 L 72.878906 78.319336 Z M 73.738281 78.319336 L 73.738281 72.335938 L 76.729980 72.335938 L 76.729980 73.259766 L 74.597656 73.259766 L 74.597656 78.319336 Z " fill="rgb(255, 255, 255)" fill-opacity="1.000000" />
<path d="M 72.019531 91.319336 L 72.019531 77.300781 L 72.878906 77.300781 L 72.878906 91.319336 Z M 73.738281 91.319336 L 73.738281 77.300781 L 74.597656 77.300781 L 74.597656 91.319336 Z " fill="rgb(255, 255, 255)" fill-opacity="1.000000" />
<path d="M 73.738281 97.412109 L 73.738281 90.300781 L 74.597656 90.300781 L 74.597656 96.488281 L 76.729980 96.488281 L 76.729980 97.412109 Z M 72.019531 99.259766 L 72.019531 90.300781 L 72.878906 90.300781 L 72.878906 98.335938 L 76.729980 98.335938 L 76.729980 99.259766 Z " fill="rgb(255, 255, 255)" fill-opacity="1.000000" />
<path d="M 76.892578 97.412109 L 76.892578 96.488281 L 83.729980 96.488281 L 83.729980 97.412109 Z M 76.892578 99.259766 L 76.892578 98.335938 L 83.729980 98.335938 L 83.729980 99.259766 Z " fill="rgb(255, 255, 255)" fill-opacity="1.000000" />
<path d="M 83.892578 97.412109 L 83.892578 96.488281 L 90.729980 96.488281 L 90.729980 97.412109 Z M 83.892578 99.259766 L 83.892578 98.335938 L 90.729980 98.335938 L 90.729980 99.259766 Z " fill="rgb(255, 255, 255)" fill-opacity="1.000000" />
<path d="M 90.892578 97.412109 L 90.892578 96.488281 L 97.729980 96.488281 L 97.729980 97.412109 Z M 90.892578 99.259766 L 90.892578 98.335938 L 97.729980 98.335938 L 97.729980 99.259766 Z " fill="rgb(255, 255, 255)" fill-opacity="1.000000" />
<path d="M 97.892578 97.412109 L 97.892578 96.488281 L 104.729980 96.488281 L 104.729980 97.412109 Z M 97.892578 99.259766 L 97.892578 98.335938 L 104.729980 98.335938 L 104.729980 99.259766 Z " fill="rgb(255, 255, 255)" fill-opacity="1.000000" />
<path d="M 104.892578 97.412109 L 104.892578 96.488281 L 111.729980 96.488281 L 111.729980 97.412109 Z M 104.892578 99.259766 L 104.892578 98.335938 L 111.729980 98.335938 L 111.729980 99.259766 Z " fill="rgb(255, 255, 255)" fill-opacity="1.000000" />
<path d="M 111.892578 97.412109 L 111.892578 96.488281 L 118.729980 96.488281 L 118.729980 97.412109 Z M 111.892578 99.259766 L 111.892578 98.335938 L 118.729980 98.335938 L 118.729980 99.259766 Z " fill="rgb(255, 255, 255)" fill-opacity="1.000000" />
<path d="M 118.892578 97.412109 L 118.892578 96.488281 L 125.729980 96.488281 L 125.729980 97.412109 Z M 118.892578 99.259766 L 118.892578 98.335938 L 125.729980 98.335938 L 125.729980 99.259766 Z " fill="rgb(255, 255, 255)" fill-opacity="1.000000" />
<path d="M 125.892578 97.412109 L 125.892578 96.488281 L 132.729980 96.488281 L 132.729980 97.412109 Z M 125.892578 99.259766 L 125.892578 98.335938 L 132.729980 98.335938 L 132.729980 99.259766 Z " fill="rgb(255, 255, 255)" fill-opacity="1.000000" />
<path d="M 132.892578 97.412109 L 132.892578 96.488281 L 139.729980 96.488281 L 139.729980 97.412109 Z M 132.892578 99.259766 L 132.892578 98.335938 L 139.729980 98.335938 L 139.729980 99.259766 Z " fill="rgb(255, 255, 255)" fill-opacity="1.000000" />
<path d="M 139.892578 97.412109 L 139.892578 96.488281 L 146.729980 96.488281 L 146.729980 97.412109 Z M 139.892578 99.259766 L 139.892578 98.335938 L 146.729980 98.335938 L 146.729980 99.259766 Z " fill="rgb(255, 255, 255)" fill-opacity="1.000000" />
<path d="M 146.892578 97.412109 L 146.892578 96.488281 L 153.729980 96.488281 L 153.729980 97.412109 Z M 146.892578 99.259766 L 146.892578 98.335938 L 153.729980 98.335938 L 153.729980 99.259766 Z " fill="rgb(255, 255, 255)" fill-opacity="1.000000" />
<path d="M 153.892578 97.412109 L 153.892578 96.488281 L 160.729980 96.488281 L 160.729980 97.412109 Z M 153.892578 99.259766 L 153.892578 98.335938 L 160.729980 98.335938 L 160.729980 99.259766 Z " fill="rgb(255, 255, 255)" fill-opacity="1.000000" />
<path d="M 160.892578 97.412109 L 160.892578 96.488281 L 167.729980 96.488281 L 167.729980 97.412109 Z M 160.892578 99.259766 L 160.892578 98.335938 L 167.729980 98.335938 L 167.729980 99.259766 Z " fill="rgb(255, 255, 255)" fill-opacity="1.000000" />
<path d="M 167.892578 97.412109 L 167.892578 96.488281 L 174.729980 96.488281 L 174.729980 97.412109 Z M 167.892578 99.259766 L 167.892578 98.335938 L 174.729980 98.335938 L 174.729980 99.259766 Z " fill="rgb(255, 255, 255)" fill-opacity="1.000000" />
<path d="M 174.892578 97.412109 L 174.892578 96.488281 L 181.729980 96.488281 L 181.729980 97.412109 Z M 174.892578 99.259766 L 174.892578 98.335938 L 181.729980 98.335938 L 181.729980 99.259766 Z " fill="rgb(255, 255, 255)" fill-opacity="1.000000" />
<path d="M 181.892578 97.412109 L 181.892578 96.488281 L 184.019531 96.488281 L 184.019531 90.300781 L 184.878906 90.300781 L 184.878906 97.412109 Z M 181.892578 99.259766 L 181.892578 98.335938 L 185.738281 98.335938 L 185.738281 90.300781 L 186.597656 90.300781 L 186.597656 99.259766 Z " fill="rgb(255, 255, 255)" fill-opacity="1.000000" />
<path d="M 82.709473 79.642578 L 82.709473 80.464355 L 81.586914 80.464355 Q 81.055176 80.464355 80.848389 80.681885 Q 80.641602 80.899414 80.641602 81.452637 L 80.641602 81.984375 L 82.709473 81.984375 L 82.709473 82.752441 L 80.641602 82.752441 L 80.641602 88.000000 L 79.653320 88.000000 L 79.653320 82.752441 L 78.047363 82.752441 L 78.047363 81.984375 L 79.653320 81.984375 L 79.653320 81.565430 Q 79.653320 80.577148 80.107178 80.109863 Q 80.561035 79.642578 81.522461 79.642578 Z " fill="rgb(255, 255, 255)" fill-opacity="1.000000" />
<path d="M 89.645020 84.272461 L 89.645020 88.000000 L 88.651367 88.000000 L 88.651367 84.272461 Q 88.651367 83.461426 88.366699 83.080078 Q 88.082031 82.698730 87.475098 82.698730 Q 86.782227 82.698730 86.408936 83.190186 Q 86.035645 83.681641 86.035645 84.600098 L 86.035645 88.000000 L 85.047363 88.000000 L 85.047363 81.984375 L 86.035645 81.984375 L 86.035645 82.886719 Q 86.298828 82.371094 86.750000 82.105225 Q 87.201172 81.839355 87.818848 81.839355 Q 88.737305 81.839355 89.191162 82.443604 Q 89.645020 83.047852 89.645020 84.272461 Z " fill="rgb(255, 255, 255)" fill-opacity="1.000000" />
<path d="M 95.592285 79.116211 Q 94.877930 80.340820 94.526123 81.557373 Q 94.174316 82.773926 94.174316 84.009277 Q 94.174316 85.239258 94.526123 86.458496 Q 94.877930 87.677734 95.592285 88.913086 L 94.732910 88.913086 Q 93.921875 87.634766 93.524414 86.423584 Q 93.126953 85.212402 93.126953 84.009277 Q 93.126953 82.811523 93.524414 81.597656 Q 93.921875 80.383789 94.732910 79.116211 Z " fill="rgb(255, 255, 255)" fill-opacity="1.000000" />
<path d="M 103.698730 87.693848 Q 103.301270 87.924805 102.879639 88.040283 Q 102.458008 88.155762 102.017578 88.155762 Q 100.621094 88.155762 99.834229 87.317871 Q 99.047363 86.479980 99.047363 84.997559 Q 99.047363 83.515137 99.834229 82.677246 Q 100.621094 81.839355 102.017578 81.839355 Q 102.452637 81.839355 102.866211 81.952148 Q 103.279785 82.064941 103.698730 82.301270 L 103.698730 83.337891 Q 103.306641 82.988770 102.911865 82.833008 Q 102.517090 82.677246 102.017578 82.677246 Q 101.088379 82.677246 100.588867 83.278809 Q 100.089355 83.880371 100.089355 84.997559 Q 100.089355 86.109375 100.591553 86.713623 Q 101.093750 87.317871 102.017578 87.317871 Q 102.533203 87.317871 102.941406 87.159424 Q 103.349609 87.000977 103.698730 86.667969 Z " fill="rgb(255, 255, 255)" fill-opacity="1.000000" />
<path d="M 108.297852 80.276367 L 108.297852 81.984375 L 110.542969 81.984375 L 110.542969 82.752441 L 108.297852 82.752441 L 108.297852 86.018066 Q 108.297852 86.684082 108.550293 86.947266 Q 108.802734 87.210449 109.431152 87.210449 L 110.542969 87.210449 L 110.542969 88.000000 L 109.334473 88.000000 Q 108.222656 88.000000 107.766113 87.554199 Q 107.309570 87.108398 107.309570 86.018066 L 107.309570 82.752441 L 105.703613 82.752441 L 105.703613 81.984375 L 107.309570 81.984375 L 107.309570 80.276367 Z " fill="rgb(255, 255, 255)" fill-opacity="1.000000" />
<path d="M 118.004883 81.984375 L 115.851074 84.863281 L 118.214355 88.000000 L 117.070312 88.000000 L 115.308594 85.588379 L 113.552246 88.000000 L 112.408203 88.000000 L 114.771484 84.863281 L 112.617676 81.984375 L 113.713379 81.984375 L 115.308594 84.159668 L 116.893066 81.984375 Z " fill="rgb(255, 255, 255)" fill-opacity="1.000000" />
<path d="M 121.374023 86.061035 L 123.049805 86.061035 L 123.049805 87.484375 L 121.857422 89.799316 L 120.783203 89.804688 L 121.374023 87.484375 Z " fill="rgb(255, 255, 255)" fill-opacity="1.000000" />
<path d="M 136.630859 82.596680 Q 136.813477 82.209961 137.095459 82.024658 Q 137.377441 81.839355 137.774902 81.839355 Q 138.500000 81.839355 138.798096 82.400635 Q 139.096191 82.961914 139.096191 84.514160 L 139.096191 88.000000 L 138.193848 88.000000 L 138.193848 84.557129 Q 138.193848 83.284180 138.051514 82.975342 Q 137.909180 82.666504 137.533203 82.666504 Q 137.103516 82.666504 136.945068 82.996826 Q 136.786621 83.327148 136.786621 84.557129 L 136.786621 88.000000 L 135.884277 88.000000 L 135.884277 84.557129 Q 135.884277 83.268066 135.731201 82.967285 Q 135.578125 82.666504 135.180664 82.666504 Q 134.788574 82.666504 134.635498 82.996826 Q 134.482422 83.327148 134.482422 84.557129 L 134.482422 88.000000 L 133.585449 88.000000 L 133.585449 81.984375 L 134.482422 81.984375 L 134.482422 82.500000 Q 134.659668 82.177734 134.925537 82.008545 Q 135.191406 81.839355 135.529785 81.839355 Q 135.937988 81.839355 136.209229 82.027344 Q 136.480469 82.215332 136.630859 82.596680 Z " fill="rgb(255, 255, 255)" fill-opacity="1.000000" />
<path d="M 145.226074 82.193848 L 145.226074 83.160645 Q 144.801758 82.913574 144.372070 82.790039 Q 143.942383 82.666504 143.496582 82.666504 Q 142.825195 82.666504 142.494873 82.884033 Q 142.164551 83.101562 142.164551 83.547363 Q 142.164551 83.950195 142.411621 84.148926 Q 142.658691 84.347656 143.641602 84.535645 L 144.039062 84.610840 Q 144.774902 84.750488 145.153564 85.169434 Q 145.532227 85.588379 145.532227 86.259766 Q 145.532227 87.151367 144.898438 87.653564 Q 144.264648 88.155762 143.136719 88.155762 Q 142.690918 88.155762 142.202148 88.061768 Q 141.713379 87.967773 141.144043 87.779785 L 141.144043 86.759277 Q 141.697266 87.043945 142.202148 87.186279 Q 142.707031 87.328613 143.158203 87.328613 Q 143.813477 87.328613 144.173340 87.062744 Q 144.533203 86.796875 144.533203 86.318848 Q 144.533203 85.631348 143.217285 85.368164 L 143.174316 85.357422 L 142.803711 85.282227 Q 141.949707 85.115723 141.557617 84.720947 Q 141.165527 84.326172 141.165527 83.644043 Q 141.165527 82.779297 141.750977 82.309326 Q 142.336426 81.839355 143.421387 81.839355 Q 143.904785 81.839355 144.350586 81.927979 Q 144.796387 82.016602 145.226074 82.193848 Z " fill="rgb(255, 255, 255)" fill-opacity="1.000000" />
<path d="M 151.608398 84.943848 Q 151.608398 83.832031 151.245850 83.254639 Q 150.883301 82.677246 150.190430 82.677246 Q 149.465332 82.677246 149.083984 83.254639 Q 148.702637 83.832031 148.702637 84.943848 Q 148.702637 86.055664 149.086670 86.638428 Q 149.470703 87.221191 150.201172 87.221191 Q 150.883301 87.221191 151.245850 86.635742 Q 151.608398 86.050293 151.608398 84.943848 Z M 152.596680 87.613281 Q 152.596680 88.966797 151.957520 89.665039 Q 151.318359 90.363281 150.077637 90.363281 Q 149.669434 90.363281 149.223633 90.288086 Q 148.777832 90.212891 148.332031 90.067871 L 148.332031 89.090332 Q 148.858398 89.337402 149.288086 89.455566 Q 149.717773 89.573730 150.077637 89.573730 Q 150.877930 89.573730 151.243164 89.138672 Q 151.608398 88.703613 151.608398 87.758301 L 151.608398 87.715332 L 151.608398 87.043945 Q 151.372070 87.548828 150.963867 87.795898 Q 150.555664 88.042969 149.970215 88.042969 Q 148.917480 88.042969 148.289062 87.199707 Q 147.660645 86.356445 147.660645 84.943848 Q 147.660645 83.525879 148.289062 82.682617 Q 148.917480 81.839355 149.970215 81.839355 Q 150.550293 81.839355 150.953125 82.070312 Q 151.355957 82.301270 151.608398 82.784668 L 151.608398 82.005859 L 152.596680 82.005859 Z " fill="rgb(255, 255, 255)" fill-opacity="1.000000" />
<path d="M 155.869141 79.116211 L 156.728516 79.116211 Q 157.539551 80.383789 157.937012 81.597656 Q 158.334473 82.811523 158.334473 84.009277 Q 158.334473 85.217773 157.937012 86.431641 Q 157.539551 87.645508 156.728516 88.913086 L 155.869141 88.913086 Q 156.583496 87.666992 156.935303 86.447754 Q 157.287109 85.228516 157.287109 84.009277 Q 157.287109 82.784668 156.935303 81.565430 Q 156.583496 80.346191 155.869141 79.116211 Z " fill="rgb(255, 255, 255)" fill-opacity="1.000000" />
<path d="M 161.547852 84.111328 L 167.241211 84.111328 L 167.241211 85.019043 L 161.547852 85.019043 Z " fill="rgb(255, 255, 255)" fill-opacity="1.000000" />
<path d="M 168.472656 82.838379 L 168.472656 81.860840 L 174.149902 84.105957 L 174.149902 84.997559 L 168.472656 87.242676 L 168.472656 86.259766 L 173.038086 84.557129 Z " fill="rgb(255, 255, 255)" fill-opacity="1.000000" />
<path d="M 181.203613 83.225098 Q 180.886719 82.978027 180.559082 82.865234 Q 180.231445 82.752441 179.839355 82.752441 Q 178.915527 82.752441 178.426758 83.332520 Q 177.937988 83.912598 177.937988 85.008301 L 177.937988 88.000000 L 176.944336 88.000000 L 176.944336 81.984375 L 177.937988 81.984375 L 177.937988 83.160645 Q 178.185059 82.521484 178.697998 82.180420 Q 179.210938 81.839355 179.914551 81.839355 Q 180.279785 81.839355 180.596680 81.930664 Q 180.913574 82.021973 181.203613 82.215332 Z " fill="rgb(255, 255, 255)" fill-opacity="1.000000" />
<path d="M 184.019531 91.319336 L 184.019531 77.300781 L 184.878906 77.300781 L 184.878906 91.319336 Z M 185.738281 91.319336 L 185.738281 77.300781 L 186.597656 77.300781 L 186.597656 91.319336 Z " fill="rgb(255, 255, 255)" fill-opacity="1.000000" />
<path d="M 76.892578 71.412109 L 76.892578 70.488281 L 83.729980 70.488281 L 83.729980 71.412109 Z M 76.892578 73.259766 L 76.892578 72.335938 L 83.729980 72.335938 L 83.729980 73.259766 Z " fill="rgb(255, 255, 255)" fill-opacity="1.000000" />
<path d="M 83.892578 71.412109 L 83.892578 70.488281 L 90.729980 70.488281 L 90.729980 71.412109 Z M 83.892578 73.259766 L 83.892578 72.335938 L 90.729980 72.335938 L 90.729980 73.259766 Z " fill="rgb(255, 255, 255)" fill-opacity="1.000000" />
<path d="M 90.892578 71.412109 L 90.892578 70.488281 L 97.729980 70.488281 L 97.729980 71.412109 Z M 90.892578 73.259766 L 90.892578 72.335938 L 97.729980 72.335938 L 97.729980 73.259766 Z " fill="rgb(255, 255, 255)" fill-opacity="1.000000" />
<path d="M 97.892578 71.412109 L 97.892578 70.488281 L 104.729980 70.488281 L 104.729980 71.412109 Z M 97.892578 73.259766 L 97.892578 72.335938 L 104.729980 72.335938 L 104.729980 73.259766 Z " fill="rgb(255, 255, 255)" fill-opacity="1.000000" />
<path d="M 108.308594 75.418945 L 105.032227 68.866211 L 111.590332 68.866211 Z " fill="rgb(255, 255, 255)" fill-opacity="1.000000" />
<path d="M 111.892578 71.412109 L 111.892578 70.488281 L 118.729980 70.488281 L 118.729980 71.412109 Z M 111.892578 73.259766 L 111.892578 72.335938 L 118.729980 72.335938 L 118.729980 73.259766 Z " fill="rgb(255, 255, 255)" fill-opacity="1.000000" />
<path d="M 118.892578 71.412109 L 118.892578 70.488281 L 125.729980 70.488281 L 125.729980 71.412109 Z M 118.892578 73.259766 L 118.892578 72.335938 L 125.729980 72.335938 L 125.729980 73.259766 Z " fill="rgb(255, 255, 255)" fill-opacity="1.000000" />
<path d="M 125.892578 71.412109 L 125.892578 70.488281 L 132.729980 70.488281 L 132.729980 71.412109 Z M 125.892578 73.259766 L 125.892578 72.335938 L 132.729980 72.335938 L 132.729980 73.259766 Z " fill="rgb(255, 255, 255)" fill-opacity="1.000000" />
<path d="M 132.892578 71.412109 L 132.892578 70.488281 L 139.729980 70.488281 L 139.729980 71.412109 Z M 132.892578 73.259766 L 132.892578 72.335938 L 139.729980 72.335938 L 139.729980 73.259766 Z " fill="rgb(255, 255, 255)" fill-opacity="1.000000" />
<path d="M 143.308594 75.418945 L 140.032227 68.866211 L 146.590332 68.866211 Z " fill="rgb(255, 255, 255)" fill-opacity="1.000000" />
<path d="M 146.892578 71.412109 L 146.892578 70.488281 L 153.729980 70.488281 L 153.729980 71.412109 Z M 146.892578 73.259766 L 146.892578 72.335938 L 153.729980 72.335938 L 153.729980 73.259766 Z " fill="rgb(255, 255, 255)" fill-opacity="1.000000" />
<path d="M 153.892578 71.412109 L 153.892578 70.488281 L 160.729980 70.488281 L 160.729980 71.412109 Z M 153.892578 73.259766 L 153.892578 72.335938 L 160.729980 72.335938 L 160.729980 73.259766 Z " fill="rgb(255, 255, 255)" fill-opacity="1.000000" />
<path d="M 160.892578 71.412109 L 160.892578 70.488281 L 167.729980 70.488281 L 167.729980 71.412109 Z M 160.892578 73.259766 L 160.892578 72.335938 L 167.729980 72.335938 L 167.729980 73.259766 Z " fill="rgb(255, 255, 255)" fill-opacity="1.000000" />
<path d="M 167.892578 71.412109 L 167.892578 70.488281 L 174.729980 70.488281 L 174.729980 71.412109 Z M 167.892578 73.259766 L 167.892578 72.335938 L 174.729980 72.335938 L 174.729980 73.259766 Z " fill="rgb(255, 255, 255)" fill-opacity="1.000000" />
<path d="M 174.892578 71.412109 L 174.892578 70.488281 L 181.729980 70.488281 L 181.729980 71.412109 Z M 174.892578 73.259766 L 174.892578 72.335938 L 181.729980 72.335938 L 181.729980 73.259766 Z " fill="rgb(255, 255, 255)" fill-opacity="1.000000" />
<path d="M 185.738281 78.319336 L 185.738281 71.412109 L 181.892578 71.412109 L 181.892578 70.488281 L 186.597656 70.488281 L 186.597656 78.319336 Z M 184.019531 78.319336 L 184.019531 73.259766 L 181.892578 73.259766 L 181.892578 72.335938 L 184.878906 72.335938 L 184.878906 78.319336 Z " fill="rgb(255, 255, 255)" fill-opacity="1.000000" />
<path d="M 34.892578 58.412109 L 34.892578 57.488281 L 41.729980 57.488281 L 41.729980 58.412109 Z M 34.892578 60.259766 L 34.892578 59.335938 L 41.729980 59.335938 L 41.729980 60.259766 Z " fill="rgb(255, 255, 255)" fill-opacity="1.000000" />
<path d="M 41.892578 58.412109 L 41.892578 57.488281 L 48.729980 57.488281 L 48.729980 58.412109 Z M 41.892578 60.259766 L 41.892578 59.335938 L 48.729980 59.335938 L 48.729980 60.259766 Z " fill="rgb(255, 255, 255)" fill-opacity="1.000000" />
<path d="M 48.892578 58.412109 L 48.892578 57.488281 L 55.729980 57.488281 L 55.729980 58.412109 Z M 48.892578 60.259766 L 48.892578 59.335938 L 55.729980 59.335938 L 55.729980 60.259766 Z " fill="rgb(255, 255, 255)" fill-opacity="1.000000" />
<path d="M 55.892578 58.412109 L 55.892578 57.488281 L 62.729980 57.488281 L 62.729980 58.412109 Z M 55.892578 60.259766 L 55.892578 59.335938 L 62.729980 59.335938 L 62.729980 60.259766 Z " fill="rgb(255, 255, 255)" fill-opacity="1.000000" />
<path d="M 62.892578 58.412109 L 62.892578 57.488281 L 69.729980 57.488281 L 69.729980 58.412109 Z M 62.892578 60.259766 L 62.892578 59.335938 L 69.729980 59.335938 L 69.729980 60.259766 Z " fill="rgb(255, 255, 255)" fill-opacity="1.000000" />
<path d="M 69.892578 58.412109 L 69.892578 57.488281 L 76.729980 57.488281 L 76.729980 58.412109 Z M 69.892578 60.259766 L 69.892578 59.335938 L 76.729980 59.335938 L 76.729980 60.259766 Z " fill="rgb(255, 255, 255)" fill-opacity="1.000000" />
<path d="M 76.892578 58.412109 L 76.892578 57.488281 L 83.729980 57.488281 L 83.729980 58.412109 Z M 76.892578 60.259766 L 76.892578 59.335938 L 83.729980 59.335938 L 83.729980 60.259766 Z " fill="rgb(255, 255, 255)" fill-opacity="1.000000" />
<path d="M 83.892578 58.412109 L 83.892578 57.488281 L 86.019531 57.488281 L 86.019531 51.300781 L 86.878906 51.300781 L 86.878906 58.412109 Z M 83.892578 60.259766 L 83.892578 59.335938 L 87.738281 59.335938 L 87.738281 51.300781 L 88.597656 51.300781 L 88.597656 60.259766 Z " fill="rgb(255, 255, 255)" fill-opacity="1.000000" />
<path d="M 107.878906 65.319336 L 107.878906 51.300781 L 108.738281 51.300781 L 108.738281 65.319336 Z " fill="rgb(255, 255, 255)" fill-opacity="1.000000" />
<path d="M 142.878906 65.319336 L 142.878906 51.300781 L 143.738281 51.300781 L 143.738281 65.319336 Z " fill="rgb(255, 255, 255)" fill-opacity="1.000000" />
<path d="M 47.226074 43.193848 L 47.226074 44.160645 Q 46.801758 43.913574 46.372070 43.790039 Q 45.942383 43.666504 45.496582 43.666504 Q 44.825195 43.666504 44.494873 43.884033 Q 44.164551 44.101562 44.164551 44.547363 Q 44.164551 44.950195 44.411621 45.148926 Q 44.658691 45.347656 45.641602 45.535645 L 46.039062 45.610840 Q 46.774902 45.750488 47.153564 46.169434 Q 47.532227 46.588379 47.532227 47.259766 Q 47.532227 48.151367 46.898438 48.653564 Q 46.264648 49.155762 45.136719 49.155762 Q 44.690918 49.155762 44.202148 49.061768 Q 43.713379 48.967773 43.144043 48.779785 L 43.144043 47.759277 Q 43.697266 48.043945 44.202148 48.186279 Q 44.707031 48.328613 45.158203 48.328613 Q 45.813477 48.328613 46.173340 48.062744 Q 46.533203 47.796875 46.533203 47.318848 Q 46.533203 46.631348 45.217285 46.368164 L 45.174316 46.357422 L 44.803711 46.282227 Q 43.949707 46.115723 43.557617 45.720947 Q 43.165527 45.326172 43.165527 44.644043 Q 43.165527 43.779297 43.750977 43.309326 Q 44.336426 42.839355 45.421387 42.839355 Q 45.904785 42.839355 46.350586 42.927979 Q 46.796387 43.016602 47.226074 43.193848 Z " fill="rgb(255, 255, 255)" fill-opacity="1.000000" />
<path d="M 52.297852 41.276367 L 52.297852 42.984375 L 54.542969 42.984375 L 54.542969 43.752441 L 52.297852 43.752441 L 52.297852 47.018066 Q 52.297852 47.684082 52.550293 47.947266 Q 52.802734 48.210449 53.431152 48.210449 L 54.542969 48.210449 L 54.542969 49.000000 L 53.334473 49.000000 Q 52.222656 49.000000 51.766113 48.554199 Q 51.309570 48.108398 51.309570 47.018066 L 51.309570 43.752441 L 49.703613 43.752441 L 49.703613 42.984375 L 51.309570 42.984375 L 51.309570 41.276367 Z " fill="rgb(255, 255, 255)" fill-opacity="1.000000" />
<path d="M 59.770508 45.976074 L 59.442871 45.976074 Q 58.578125 45.976074 58.140381 46.279541 Q 57.702637 46.583008 57.702637 47.184570 Q 57.702637 47.727051 58.030273 48.027832 Q 58.357910 48.328613 58.937988 48.328613 Q 59.754395 48.328613 60.221680 47.761963 Q 60.688965 47.195312 60.694336 46.196289 L 60.694336 45.976074 Z M 61.687988 45.567871 L 61.687988 49.000000 L 60.694336 49.000000 L 60.694336 48.108398 Q 60.377441 48.645508 59.896729 48.900635 Q 59.416016 49.155762 58.728516 49.155762 Q 57.810059 49.155762 57.262207 48.637451 Q 56.714355 48.119141 56.714355 47.249023 Q 56.714355 46.244629 57.388428 45.723633 Q 58.062500 45.202637 59.367676 45.202637 L 60.694336 45.202637 L 60.694336 45.046875 Q 60.688965 44.327148 60.329102 44.002197 Q 59.969238 43.677246 59.179688 43.677246 Q 58.674805 43.677246 58.159180 43.822266 Q 57.643555 43.967285 57.154785 44.246582 L 57.154785 43.258301 Q 57.702637 43.048828 58.204834 42.944092 Q 58.707031 42.839355 59.179688 42.839355 Q 59.926270 42.839355 60.455322 43.059570 Q 60.984375 43.279785 61.312012 43.720215 Q 61.516113 43.988770 61.602051 44.383545 Q 61.687988 44.778320 61.687988 45.567871 Z " fill="rgb(255, 255, 255)" fill-opacity="1.000000" />
<path d="M 66.297852 41.276367 L 66.297852 42.984375 L 68.542969 42.984375 L 68.542969 43.752441 L 66.297852 43.752441 L 66.297852 47.018066 Q 66.297852 47.684082 66.550293 47.947266 Q 66.802734 48.210449 67.431152 48.210449 L 68.542969 48.210449 L 68.542969 49.000000 L 67.334473 49.000000 Q 66.222656 49.000000 65.766113 48.554199 Q 65.309570 48.108398 65.309570 47.018066 L 65.309570 43.752441 L 63.703613 43.752441 L 63.703613 42.984375 L 65.309570 42.984375 L 65.309570 41.276367 Z " fill="rgb(255, 255, 255)" fill-opacity="1.000000" />
<path d="M 76.015625 45.498047 L 76.015625 45.981445 L 71.734863 45.981445 L 71.734863 46.013672 Q 71.691895 47.243652 72.204834 47.780762 Q 72.717773 48.317871 73.652344 48.317871 Q 74.125000 48.317871 74.640625 48.167480 Q 75.156250 48.017090 75.741699 47.710938 L 75.741699 48.693848 Q 75.177734 48.924805 74.654053 49.040283 Q 74.130371 49.155762 73.641602 49.155762 Q 72.239746 49.155762 71.450195 48.315186 Q 70.660645 47.474609 70.660645 45.997559 Q 70.660645 44.558105 71.434082 43.698730 Q 72.207520 42.839355 73.496582 42.839355 Q 74.645996 42.839355 75.309326 43.618164 Q 75.972656 44.396973 76.015625 45.498047 Z M 75.027344 45.208008 Q 74.962891 44.584961 74.573486 44.131104 Q 74.184082 43.677246 73.453613 43.677246 Q 72.739258 43.677246 72.277344 44.149902 Q 71.815430 44.622559 71.772461 45.213379 Z " fill="rgb(255, 255, 255)" fill-opacity="1.000000" />
<path d="M 86.019531 52.319336 L 86.019531 38.300781 L 86.878906 38.300781 L 86.878906 52.319336 Z M 87.738281 52.319336 L 87.738281 38.300781 L 88.597656 38.300781 L 88.597656 52.319336 Z " fill="rgb(255, 255, 255)" fill-opacity="1.000000" />
<path d="M 90.892578 46.335938 L 90.892578 45.412109 L 97.729980 45.412109 L 97.729980 46.335938 Z " fill="rgb(255, 255, 255)" fill-opacity="1.000000" />
<path d="M 97.892578 46.335938 L 97.892578 45.412109 L 104.729980 45.412109 L 104.729980 46.335938 Z " fill="rgb(255, 255, 255)" fill-opacity="1.000000" />
<path d="M 107.878906 52.319336 L 107.878906 46.335938 L 104.892578 46.335938 L 104.892578 45.412109 L 108.738281 45.412109 L 108.738281 52.319336 Z " fill="rgb(255, 255, 255)" fill-opacity="1.000000" />
<path d="M 142.878906 52.319336 L 142.878906 38.300781 L 143.738281 38.300781 L 143.738281 52.319336 Z " fill="rgb(255, 255, 255)" fill-opacity="1.000000" />
<path d="M 21.032227 36.418945 L 21.032227 29.866211 L 27.590332 33.142578 Z " fill="rgb(255, 255, 255)" fill-opacity="1.000000" />
<path d="M 31.738281 32.412109 L 31.738281 25.300781 L 32.597656 25.300781 L 32.597656 31.488281 L 34.729980 31.488281 L 34.729980 32.412109 Z M 30.019531 39.319336 L 30.019531 25.300781 L 30.878906 25.300781 L 30.878906 39.319336 Z M 31.738281 39.319336 L 31.738281 33.335938 L 34.729980 33.335938 L 34.729980 34.259766 L 32.597656 34.259766 L 32.597656 39.319336 Z " fill="rgb(255, 255, 255)" fill-opacity="1.000000" />
<path d="M 34.892578 32.412109 L 34.892578 31.488281 L 41.729980 31.488281 L 41.729980 32.412109 Z M 34.892578 34.259766 L 34.892578 33.335938 L 41.729980 33.335938 L 41.729980 34.259766 Z " fill="rgb(255, 255, 255)" fill-opacity="1.000000" />
<path d="M 41.892578 32.412109 L 41.892578 31.488281 L 48.729980 31.488281 L 48.729980 32.412109 Z M 41.892578 34.259766 L 41.892578 33.335938 L 48.729980 33.335938 L 48.729980 34.259766 Z " fill="rgb(255, 255, 255)" fill-opacity="1.000000" />
<path d="M 48.892578 32.412109 L 48.892578 31.488281 L 55.729980 31.488281 L 55.729980 32.412109 Z M 48.892578 34.259766 L 48.892578 33.335938 L 55.729980 33.335938 L 55.729980 34.259766 Z " fill="rgb(255, 255, 255)" fill-opacity="1.000000" />
<path d="M 55.892578 32.412109 L 55.892578 31.488281 L 62.729980 31.488281 L 62.729980 32.412109 Z M 55.892578 34.259766 L 55.892578 33.335938 L 62.729980 33.335938 L 62.729980 34.259766 Z " fill="rgb(255, 255, 255)" fill-opacity="1.000000" />
<path d="M 62.892578 32.412109 L 62.892578 31.488281 L 69.729980 31.488281 L 69.729980 32.412109 Z M 62.892578 34.259766 L 62.892578 33.335938 L 69.729980 33.335938 L 69.729980 34.259766 Z " fill="rgb(255, 255, 255)" fill-opacity="1.000000" />
<path d="M 69.892578 32.412109 L 69.892578 31.488281 L 76.729980 31.488281 L 76.729980 32.412109 Z M 69.892578 34.259766 L 69.892578 33.335938 L 76.729980 33.335938 L 76.729980 34.259766 Z " fill="rgb(255, 255, 255)" fill-opacity="1.000000" />
<path d="M 76.892578 32.412109 L 76.892578 31.488281 L 83.729980 31.488281 L 83.729980 32.412109 Z M 76.892578 34.259766 L 76.892578 33.335938 L 83.729980 33.335938 L 83.729980 34.259766 Z " fill="rgb(255, 255, 255)" fill-opacity="1.000000" />
<path d="M 83.892578 32.412109 L 83.892578 31.488281 L 86.019531 31.488281 L 86.019531 25.300781 L 86.878906 25.300781 L 86.878906 32.412109 Z M 86.019531 39.319336 L 86.019531 34.259766 L 83.892578 34.259766 L 83.892578 33.335938 L 86.878906 33.335938 L 86.878906 39.319336 Z M 87.738281 39.319336 L 87.738281 25.300781 L 88.597656 25.300781 L 88.597656 39.319336 Z " fill="rgb(255, 255, 255)" fill-opacity="1.000000" />
<path d="M 142.878906 39.319336 L 142.878906 25.300781 L 143.738281 25.300781 L 143.738281 39.319336 Z " fill="rgb(255, 255, 255)" fill-opacity="1.000000" />
<path d="M 30.019531 13.319336 L 30.019531 5.488281 L 34.729980 5.488281 L 34.729980 6.412109 L 30.878906 6.412109 L 30.878906 13.319336 Z M 31.738281 13.319336 L 31.738281 7.335938 L 34.729980 7.335938 L 34.729980 8.259766 L 32.597656 8.259766 L 32.597656 13.319336 Z " fill="rgb(255, 255, 255)" fill-opacity="1.000000" />
<path d="M 30.019531 26.319336 L 30.019531 12.300781 L 30.878906 12.300781 L 30.878906 26.319336 Z M 31.738281 26.319336 L 31.738281 12.300781 L 32.597656 12.300781 L 32.597656 26.319336 Z " fill="rgb(255, 255, 255)" fill-opacity="1.000000" />
<path d="M 41.203613 18.225098 Q 40.886719 17.978027 40.559082 17.865234 Q 40.231445 17.752441 39.839355 17.752441 Q 38.915527 17.752441 38.426758 18.332520 Q 37.937988 18.912598 37.937988 20.008301 L 37.937988 23.000000 L 36.944336 23.000000 L 36.944336 16.984375 L 37.937988 16.984375 L 37.937988 18.160645 Q 38.185059 17.521484 38.697998 17.180420 Q 39.210938 16.839355 39.914551 16.839355 Q 40.279785 16.839355 40.596680 16.930664 Q 40.913574 17.021973 41.203613 17.215332 Z " fill="rgb(255, 255, 255)" fill-opacity="1.000000" />
<path d="M 48.015625 19.498047 L 48.015625 19.981445 L 43.734863 19.981445 L 43.734863 20.013672 Q 43.691895 21.243652 44.204834 21.780762 Q 44.717773 22.317871 45.652344 22.317871 Q 46.125000 22.317871 46.640625 22.167480 Q 47.156250 22.017090 47.741699 21.710938 L 47.741699 22.693848 Q 47.177734 22.924805 46.654053 23.040283 Q 46.130371 23.155762 45.641602 23.155762 Q 44.239746 23.155762 43.450195 22.315186 Q 42.660645 21.474609 42.660645 19.997559 Q 42.660645 18.558105 43.434082 17.698730 Q 44.207520 16.839355 45.496582 16.839355 Q 46.645996 16.839355 47.309326 17.618164 Q 47.972656 18.396973 48.015625 19.498047 Z M 47.027344 19.208008 Q 46.962891 18.584961 46.573486 18.131104 Q 46.184082 17.677246 45.453613 17.677246 Q 44.739258 17.677246 44.277344 18.149902 Q 43.815430 18.622559 43.772461 19.213379 Z " fill="rgb(255, 255, 255)" fill-opacity="1.000000" />
<path d="M 50.783203 20.019043 Q 50.783203 21.168457 51.145752 21.753906 Q 51.508301 22.339355 52.222656 22.339355 Q 52.937012 22.339355 53.304932 21.751221 Q 53.672852 21.163086 53.672852 20.019043 Q 53.672852 18.875000 53.304932 18.286865 Q 52.937012 17.698730 52.222656 17.698730 Q 51.508301 17.698730 51.145752 18.284180 Q 50.783203 18.869629 50.783203 20.019043 Z M 53.672852 22.253418 Q 53.431152 22.699219 53.020264 22.938232 Q 52.609375 23.177246 52.066895 23.177246 Q 50.987305 23.177246 50.361572 22.342041 Q 49.735840 21.506836 49.735840 20.040527 Q 49.735840 18.547363 50.358887 17.704102 Q 50.981934 16.860840 52.066895 16.860840 Q 52.604004 16.860840 53.014893 17.094482 Q 53.425781 17.328125 53.672852 17.773926 L 53.672852 17.005859 L 54.666504 17.005859 L 54.666504 25.309570 L 53.672852 25.309570 Z " fill="rgb(255, 255, 255)" fill-opacity="1.000000" />
<path d="M 57.047363 20.722656 L 57.047363 16.995117 L 58.035645 16.995117 L 58.035645 20.722656 Q 58.035645 21.533691 58.322998 21.915039 Q 58.610352 22.296387 59.211914 22.296387 Q 59.910156 22.296387 60.280762 21.804932 Q 60.651367 21.313477 60.651367 20.395020 L 60.651367 16.995117 L 61.645020 16.995117 L 61.645020 23.000000 L 60.651367 23.000000 L 60.651367 22.097656 Q 60.388184 22.618652 59.934326 22.887207 Q 59.480469 23.155762 58.873535 23.155762 Q 57.949707 23.155762 57.498535 22.551514 Q 57.047363 21.947266 57.047363 20.722656 Z " fill="rgb(255, 255, 255)" fill-opacity="1.000000" />
<path d="M 69.015625 19.498047 L 69.015625 19.981445 L 64.734863 19.981445 L 64.734863 20.013672 Q 64.691895 21.243652 65.204834 21.780762 Q 65.717773 22.317871 66.652344 22.317871 Q 67.125000 22.317871 67.640625 22.167480 Q 68.156250 22.017090 68.741699 21.710938 L 68.741699 22.693848 Q 68.177734 22.924805 67.654053 23.040283 Q 67.130371 23.155762 66.641602 23.155762 Q 65.239746 23.155762 64.450195 22.315186 Q 63.660645 21.474609 63.660645 19.997559 Q 63.660645 18.558105 64.434082 17.698730 Q 65.207520 16.839355 66.496582 16.839355 Q 67.645996 16.839355 68.309326 17.618164 Q 68.972656 18.396973 69.015625 19.498047 Z M 68.027344 19.208008 Q 67.962891 18.584961 67.573486 18.131104 Q 67.184082 17.677246 66.453613 17.677246 Q 65.739258 17.677246 65.277344 18.149902 Q 64.815430 18.622559 64.772461 19.213379 Z " fill="rgb(255, 255, 255)" fill-opacity="1.000000" />
<path d="M 75.226074 17.193848 L 75.226074 18.160645 Q 74.801758 17.913574 74.372070 17.790039 Q 73.942383 17.666504 73.496582 17.666504 Q 72.825195 17.666504 72.494873 17.884033 Q 72.164551 18.101562 72.164551 18.547363 Q 72.164551 18.950195 72.411621 19.148926 Q 72.658691 19.347656 73.641602 19.535645 L 74.039062 19.610840 Q 74.774902 19.750488 75.153564 20.169434 Q 75.532227 20.588379 75.532227 21.259766 Q 75.532227 22.151367 74.898438 22.653564 Q 74.264648 23.155762 73.136719 23.155762 Q 72.690918 23.155762 72.202148 23.061768 Q 71.713379 22.967773 71.144043 22.779785 L 71.144043 21.759277 Q 71.697266 22.043945 72.202148 22.186279 Q 72.707031 22.328613 73.158203 22.328613 Q 73.813477 22.328613 74.173340 22.062744 Q 74.533203 21.796875 74.533203 21.318848 Q 74.533203 20.631348 73.217285 20.368164 L 73.174316 20.357422 L 72.803711 20.282227 Q 71.949707 20.115723 71.557617 19.720947 Q 71.165527 19.326172 71.165527 18.644043 Q 71.165527 17.779297 71.750977 17.309326 Q 72.336426 16.839355 73.421387 16.839355 Q 73.904785 16.839355 74.350586 16.927979 Q 74.796387 17.016602 75.226074 17.193848 Z " fill="rgb(255, 255, 255)" fill-opacity="1.000000" />
<path d="M 80.297852 15.276367 L 80.297852 16.984375 L 82.542969 16.984375 L 82.542969 17.752441 L 80.297852 17.752441 L 80.297852 21.018066 Q 80.297852 21.684082 80.550293 21.947266 Q 80.802734 22.210449 81.431152 22.210449 L 82.542969 22.210449 L 82.542969 23.000000 L 81.334473 23.000000 Q 80.222656 23.000000 79.766113 22.554199 Q 79.309570 22.108398 79.309570 21.018066 L 79.309570 17.752441 L 77.703613 17.752441 L 77.703613 16.984375 L 79.309570 16.984375 L 79.309570 15.276367 Z " fill="rgb(255, 255, 255)" fill-opacity="1.000000" />
<path d="M 86.019531 26.319336 L 86.019531 12.300781 L 86.878906 12.300781 L 86.878906 26.319336 Z M 87.738281 26.319336 L 87.738281 12.300781 L 88.597656 12.300781 L 88.597656 26.319336 Z " fill="rgb(255, 255, 255)" fill-opacity="1.000000" />
<path d="M 90.892578 20.335938 L 90.892578 19.412109 L 97.729980 19.412109 L 97.729980 20.335938 Z " fill="rgb(255, 255, 255)" fill-opacity="1.000000" />
<path d="M 97.892578 20.335938 L 97.892578 19.412109 L 104.729980 19.412109 L 104.729980 20.335938 Z " fill="rgb(255, 255, 255)" fill-opacity="1.000000" />
<path d="M 104.892578 20.335938 L 104.892578 19.412109 L 111.729980 19.412109 L 111.729980 20.335938 Z " fill="rgb(255, 255, 255)" fill-opacity="1.000000" />
<path d="M 111.892578 20.335938 L 111.892578 19.412109 L 118.729980 19.412109 L 118.729980 20.335938 Z " fill="rgb(255, 255, 255)" fill-opacity="1.000000" />
<path d="M 118.892578 20.335938 L 118.892578 19.412109 L 125.729980 19.412109 L 125.729980 20.335938 Z " fill="rgb(255, 255, 255)" fill-opacity="1.000000" />
<path d="M 125.892578 20.335938 L 125.892578 19.412109 L 132.729980 19.412109 L 132.729980 20.335938 Z " fill="rgb(255, 255, 255)" fill-opacity="1.000000" />
<path d="M 132.892578 20.335938 L 132.892578 19.412109 L 139.729980 19.412109 L 139.729980 20.335938 Z " fill="rgb(255, 255, 255)" fill-opacity="1.000000" />
<path d="M 142.878906 26.319336 L 142.878906 20.335938 L 139.892578 20.335938 L 139.892578 19.412109 L 143.738281 19.412109 L 143.738281 26.319336 Z " fill="rgb(255, 255, 255)" fill-opacity="1.000000" />
<path d="M 34.892578 6.412109 L 34.892578 5.488281 L 41.729980 5.488281 L 41.729980 6.412109 Z M 34.892578 8.259766 L 34.892578 7.335938 L 41.729980 7.335938 L 41.729980 8.259766 Z " fill="rgb(255, 255, 255)" fill-opacity="1.000000" />
<path d="M 41.892578 6.412109 L 41.892578 5.488281 L 48.729980 5.488281 L 48.729980 6.412109 Z M 41.892578 8.259766 L 41.892578 7.335938 L 48.729980 7.335938 L 48.729980 8.259766 Z " fill="rgb(255, 255, 255)" fill-opacity="1.000000" />
<path d="M 48.892578 6.412109 L 48.892578 5.488281 L 55.729980 5.488281 L 55.729980 6.412109 Z M 48.892578 8.259766 L 48.892578 7.335938 L 55.729980 7.335938 L 55.729980 8.259766 Z " fill="rgb(255, 255, 255)" fill-opacity="1.000000" />
<path d="M 55.892578 6.412109 L 55.892578 5.488281 L 62.729980 5.488281 L 62.729980 6.412109 Z M 55.892578 8.259766 L 55.892578 7.335938 L 62.729980 7.335938 L 62.729980 8.259766 Z " fill="rgb(255, 255, 255)" fill-opacity="1.000000" />
<path d="M 62.892578 6.412109 L 62.892578 5.488281 L 69.729980 5.488281 L 69.729980 6.412109 Z M 62.892578 8.259766 L 62.892578 7.335938 L 69.729980 7.335938 L 69.729980 8.259766 Z " fill="rgb(255, 255, 255)" fill-opacity="1.000000" />
<path d="M 69.892578 6.412109 L 69.892578 5.488281 L 76.729980 5.488281 L 76.729980 6.412109 Z M 69.892578 8.259766 L 69.892578 7.335938 L 76.729980 7.335938 L 76.729980 8.259766 Z " fill="rgb(255, 255, 255)" fill-opacity="1.000000" />
<path d="M 76.892578 6.412109 L 76.892578 5.488281 L 83.729980 5.488281 L 83.729980 6.412109 Z M 76.892578 8.259766 L 76.892578 7.335938 L 83.729980 7.335938 L 83.729980 8.259766 Z " fill="rgb(255, 255, 255)" fill-opacity="1.000000" />
<path d="M 87.738281 13.319336 L 87.738281 6.412109 L 83.892578 6.412109 L 83.892578 5.488281 L 88.597656 5.488281 L 88.597656 13.319336 Z M 86.019531 13.319336 L 86.019531 8.259766 L 83.892578 8.259766 L 83.892578 7.335938 L 86.878906 7.335938 L 86.878906 13.319336 Z " fill="rgb(255, 255, 255)" fill-opacity="1.000000" />
</svg>