<?xml version="1.0" encoding="UTF-8" standalone="no"?>
<!DOCTYPE svg PUBLIC "-//W3C//DTD SVG 1.1//EN" "http://www.w3.org/Graphics/SVG/1.1/DTD/svg11.dtd">
<svg xmlns:xl="http://www.w3.org/1999/xlink" xmlns:dc="http://purl.org/dc/elements/1.1/" xmlns="http://www.w3.org/2000/svg" version="1.1" viewBox="61 88 161 110" width="161" height="110">
  <defs/>
  <metadata> Produced by OmniGraffle 7.18.5\n2021-08-29 17:49:24 +0000</metadata>
  <g id="Canvas_1" stroke="none" fill="none" fill-opacity="1" stroke-dasharray="none" stroke-opacity="1">
    <title>Canvas 1</title>
    <g id="Canvas_1_Layer_1">
      <title>Layer 1</title>
      <g id="Graphic_2">
        <title>path50</title>
        <path d="M 61 175.91867 C 61 181.72 62.064 186.45467 64.192 190.12267 C 66.32 193.79333 69.34533 196.13733 73.27067 197.156 C 77.19467 198.17333 81.78267 197.72933 87.03867 195.81733 C 91.36 194.244 95.184 192.02267 98.51067 189.156 C 101.836 186.28933 104.66267 183.11333 106.992 179.628 L 101.904 171.652 C 97.71333 178.07333 92.72533 182.336 86.93867 184.44267 C 83.148 185.82267 79.82133 185.79067 76.96267 184.34533 C 74.10133 182.9 72.43867 179.96667 71.97333 175.54 L 71.97333 175.42667 L 110.284 161.48267 L 110.284 157.98133 C 110.284 152.18133 109.336 147.36667 107.44 143.53733 C 105.54533 139.708 102.76667 137.19867 99.10933 136.00533 C 95.45067 134.81467 91.09467 135.13867 86.04 136.97733 C 81.05333 138.79333 76.66267 141.70933 72.87067 145.72533 C 69.08133 149.74133 66.153334 154.384 64.092 159.65333 C 62.029334 164.924 61 170.34533 61 175.91867 M 98.51067 156.504 L 72.07333 166.12667 C 72.73733 161.668 74.23467 157.86533 76.564 154.71867 C 78.89067 151.576 81.984 149.3 85.84133 147.896 C 89.63333 146.516 92.608 146.62 94.76933 148.20533 C 96.93067 149.79067 98.17733 152.55867 98.51067 156.504 M 127.04267 123.40933 L 116.268 127.332 L 116.268 183.82267 L 127.04267 179.9 L 127.04267 123.40933 M 131.832 149.79867 C 131.832 155.67467 132.812 160.45867 134.776 164.14933 C 136.736 167.84133 139.52933 170.23467 143.15467 171.324 C 146.78 172.41733 150.98667 172.08933 155.776 170.34667 C 159.368 169.03867 162.64266 167.07333 165.60266 164.45333 C 168.56133 161.83467 170.87333 158.82667 172.536 155.43333 L 172.536 159.61467 C 172.536 170.68667 167.58133 178.02667 157.672 181.63333 C 150.88667 184.10267 145.6 182.936 141.808 178.14133 L 135.224 189.576 C 137.684 192.59733 140.744 194.364 144.40267 194.88 C 148.05867 195.39333 152.44933 194.71867 157.572 192.85467 C 165.884 189.82933 172.22 185.188 176.57733 178.932 C 180.932 172.676 183.112 165.06667 183.112 156.10267 L 183.112 103.00133 L 172.23733 106.96 L 172.23733 114.756 C 170.64 112.476 168.36133 111.06533 165.404 110.52133 C 162.44266 109.98 159.168 110.36267 155.57733 111.66933 C 150.92133 113.364 146.79733 116.10667 143.20533 119.89867 C 139.61467 123.692 136.82 128.19333 134.82533 133.40133 C 132.82933 138.60933 131.832 144.076 131.832 149.79867 M 172.736 135.02533 C 172.736 140.52267 171.40533 145.37733 168.74533 149.58267 C 166.08533 153.78933 162.52533 156.704 158.07067 158.32533 C 153.54667 159.972 149.88933 159.648 147.09733 157.34933 C 144.30267 155.052 142.90533 151.23067 142.90533 145.88133 C 142.90533 140.53467 144.30267 135.69467 147.09733 131.364 C 149.88933 127.032 153.54667 124.044 158.07067 122.39733 C 162.52533 120.776 166.08533 121.10133 168.74533 123.37067 C 171.40533 125.64267 172.736 129.52667 172.736 135.02533 M 202.364 104.92133 L 202.364 95.99467 L 191.98933 99.77067 L 191.98933 156.26133 L 202.764 152.34 L 202.764 126.468 C 202.764 120.216 203.844 115.07867 206.00666 111.052 C 208.16666 107.028 211.64266 104.14267 216.432 102.39867 C 218.09333 101.79333 219.92266 101.39333 221.91866 101.192 L 221.91866 88.2 C 220.32266 88.32933 218.692 88.696 217.03066 89.30133 C 210.44533 91.69867 205.55733 96.90533 202.364 104.92133" fill="white"/>
      </g>
    </g>
  </g>
</svg>
